<svg xmlns="http://www.w3.org/2000/svg" width="822" height="512.299" viewBox="0 0 822 512.299">
  <g id="Grupo_112872" data-name="Grupo 112872" transform="translate(-389 -373)">
    <path id="Trazado_160208" data-name="Trazado 160208" d="M55.667,23.425,41.209,0V9.976H0V34.911H41.209V46.85Z" transform="translate(823.685 619.044) rotate(90)" fill="#f85316" stroke="#f85316" stroke-miterlimit="10" stroke-width="2"/>
    <line id="Línea_248" data-name="Línea 248" y2="50.604" transform="translate(800.493 431.988)" fill="#fff" stroke="#4752e3" stroke-miterlimit="10" stroke-width="2"/>
    <g id="Grupo_112180" data-name="Grupo 112180" transform="translate(495 499.523)" opacity="0.163">
      <path id="Trazado_160205" data-name="Trazado 160205" d="M16.053,0H593.947C602.813,0,610,5.346,610,11.94V97.865c0,6.594-7.187,11.94-16.053,11.94H16.053C7.187,109.805,0,104.459,0,97.865V11.94C0,5.346,7.187,0,16.053,0Z" transform="translate(0)" fill="#f85316" stroke="#f85316" stroke-width="2"/>
    </g>
    <path id="Trazado_162157" data-name="Trazado 162157" d="M9.551,0H7.705V-4.731H2.937V0H1.084V-10.664H2.937v4.438H7.705v-4.438H9.551ZM16.3,0A2.747,2.747,0,0,1,16.1-.74a2.77,2.77,0,0,1-2.08.886A2.8,2.8,0,0,1,12.07-.535a2.179,2.179,0,0,1-.754-1.685,2.25,2.25,0,0,1,.941-1.945,4.561,4.561,0,0,1,2.692-.677H16.04v-.52a1.388,1.388,0,0,0-.344-.985,1.365,1.365,0,0,0-1.047-.37,1.568,1.568,0,0,0-1,.3.941.941,0,0,0-.388.773h-1.78a1.975,1.975,0,0,1,.432-1.219,2.879,2.879,0,0,1,1.176-.89,4.129,4.129,0,0,1,1.659-.322,3.325,3.325,0,0,1,2.219.7,2.494,2.494,0,0,1,.85,1.967v3.574a4.051,4.051,0,0,0,.3,1.707V0ZM14.348-1.282a2.025,2.025,0,0,0,.992-.256,1.713,1.713,0,0,0,.7-.688V-3.721h-.959a2.624,2.624,0,0,0-1.487.344,1.115,1.115,0,0,0-.5.974,1.04,1.04,0,0,0,.341.817A1.319,1.319,0,0,0,14.348-1.282Zm8.591.007a1.609,1.609,0,0,0,1.106-.388,1.326,1.326,0,0,0,.469-.959h1.677a2.614,2.614,0,0,1-.461,1.381A3.027,3.027,0,0,1,24.558-.227a3.492,3.492,0,0,1-1.6.374A3.379,3.379,0,0,1,20.325-.93,4.27,4.27,0,0,1,19.351-3.9v-.183a4.2,4.2,0,0,1,.967-2.9,3.348,3.348,0,0,1,2.637-1.088,3.256,3.256,0,0,1,2.3.824,2.952,2.952,0,0,1,.934,2.164H24.514A1.63,1.63,0,0,0,24.049-6.2a1.5,1.5,0,0,0-1.11-.439,1.566,1.566,0,0,0-1.333.626,3.2,3.2,0,0,0-.476,1.9v.286A3.248,3.248,0,0,0,21.6-1.908,1.565,1.565,0,0,0,22.939-1.274ZM31.025.146A3.682,3.682,0,0,1,28.282-.919a3.866,3.866,0,0,1-1.051-2.838v-.22a4.755,4.755,0,0,1,.458-2.12,3.484,3.484,0,0,1,1.285-1.454,3.4,3.4,0,0,1,1.846-.52,3.11,3.11,0,0,1,2.5,1.033A4.367,4.367,0,0,1,34.2-4.116V-3.4H29.026a2.38,2.38,0,0,0,.656,1.553,1.968,1.968,0,0,0,1.447.571,2.41,2.41,0,0,0,1.992-.989l.959.916a3.2,3.2,0,0,1-1.271,1.1A3.978,3.978,0,0,1,31.025.146Zm-.212-6.79a1.5,1.5,0,0,0-1.183.513A2.657,2.657,0,0,0,29.055-4.7h3.391v-.132a2.163,2.163,0,0,0-.476-1.351A1.487,1.487,0,0,0,30.813-6.643Zm8.921.344a4.4,4.4,0,0,0-.725-.059,1.633,1.633,0,0,0-1.648.938V0h-1.78V-7.925h1.7l.044.886a2.005,2.005,0,0,1,1.787-1.033,1.666,1.666,0,0,1,.63.1ZM46.487,0h-1.78V-11.25h1.78Zm6.672,0a2.747,2.747,0,0,1-.205-.74,2.77,2.77,0,0,1-2.08.886,2.8,2.8,0,0,1-1.948-.681,2.179,2.179,0,0,1-.754-1.685,2.25,2.25,0,0,1,.941-1.945A4.561,4.561,0,0,1,51.8-4.841H52.9v-.52a1.388,1.388,0,0,0-.344-.985,1.365,1.365,0,0,0-1.047-.37,1.568,1.568,0,0,0-1,.3.941.941,0,0,0-.388.773H48.34a1.975,1.975,0,0,1,.432-1.219,2.879,2.879,0,0,1,1.176-.89,4.129,4.129,0,0,1,1.659-.322,3.325,3.325,0,0,1,2.219.7,2.494,2.494,0,0,1,.85,1.967v3.574a4.051,4.051,0,0,0,.3,1.707V0ZM51.2-1.282a2.025,2.025,0,0,0,.992-.256,1.713,1.713,0,0,0,.7-.688V-3.721h-.959a2.624,2.624,0,0,0-1.487.344,1.115,1.115,0,0,0-.5.974,1.04,1.04,0,0,0,.341.817A1.319,1.319,0,0,0,51.2-1.282Zm9.778-.872a.807.807,0,0,0-.392-.725,4.167,4.167,0,0,0-1.3-.439A6.683,6.683,0,0,1,57.773-3.8,2.023,2.023,0,0,1,56.44-5.669,2.109,2.109,0,0,1,57.3-7.383a3.417,3.417,0,0,1,2.2-.688,3.555,3.555,0,0,1,2.3.7,2.231,2.231,0,0,1,.875,1.824h-1.78a1.1,1.1,0,0,0-.381-.853A1.46,1.46,0,0,0,59.5-6.738a1.577,1.577,0,0,0-.956.271.854.854,0,0,0-.37.725.721.721,0,0,0,.344.637,4.734,4.734,0,0,0,1.392.458,6.587,6.587,0,0,1,1.644.549,2.328,2.328,0,0,1,.886.765,1.952,1.952,0,0,1,.289,1.084,2.065,2.065,0,0,1-.886,1.732,3.779,3.779,0,0,1-2.322.663,4.1,4.1,0,0,1-1.736-.352A2.857,2.857,0,0,1,56.6-1.172,2.288,2.288,0,0,1,56.177-2.5h1.729a1.254,1.254,0,0,0,.476.97,1.85,1.85,0,0,0,1.165.341,1.8,1.8,0,0,0,1.069-.267A.827.827,0,0,0,60.981-2.153Zm10.291.879a1.609,1.609,0,0,0,1.106-.388,1.326,1.326,0,0,0,.469-.959h1.677a2.614,2.614,0,0,1-.461,1.381A3.027,3.027,0,0,1,72.891-.227a3.492,3.492,0,0,1-1.6.374A3.379,3.379,0,0,1,68.657-.93,4.27,4.27,0,0,1,67.683-3.9v-.183a4.2,4.2,0,0,1,.967-2.9,3.348,3.348,0,0,1,2.637-1.088,3.256,3.256,0,0,1,2.3.824,2.952,2.952,0,0,1,.934,2.164H72.847A1.63,1.63,0,0,0,72.382-6.2a1.5,1.5,0,0,0-1.11-.439,1.566,1.566,0,0,0-1.333.626,3.2,3.2,0,0,0-.476,1.9v.286a3.248,3.248,0,0,0,.465,1.923A1.565,1.565,0,0,0,71.272-1.274Zm4.263-2.761A4.673,4.673,0,0,1,76-6.134a3.37,3.37,0,0,1,1.3-1.436,3.653,3.653,0,0,1,1.919-.5,3.462,3.462,0,0,1,2.6,1.033A4.062,4.062,0,0,1,82.9-4.3l.007.417a4.715,4.715,0,0,1-.45,2.095A3.329,3.329,0,0,1,81.163-.359a3.679,3.679,0,0,1-1.937.505A3.438,3.438,0,0,1,76.542-.97a4.278,4.278,0,0,1-1.007-2.977Zm1.78.154a3.193,3.193,0,0,0,.505,1.915,1.643,1.643,0,0,0,1.406.692,1.625,1.625,0,0,0,1.4-.7,3.527,3.527,0,0,0,.5-2.058,3.152,3.152,0,0,0-.516-1.9,1.649,1.649,0,0,0-1.4-.7,1.634,1.634,0,0,0-1.384.692A3.46,3.46,0,0,0,77.314-3.882ZM88.85-2.153a.807.807,0,0,0-.392-.725,4.167,4.167,0,0,0-1.3-.439A6.683,6.683,0,0,1,85.642-3.8a2.023,2.023,0,0,1-1.333-1.868,2.109,2.109,0,0,1,.864-1.714,3.417,3.417,0,0,1,2.2-.688,3.555,3.555,0,0,1,2.3.7,2.231,2.231,0,0,1,.875,1.824h-1.78a1.1,1.1,0,0,0-.381-.853,1.46,1.46,0,0,0-1.011-.341,1.577,1.577,0,0,0-.956.271.854.854,0,0,0-.37.725.721.721,0,0,0,.344.637,4.734,4.734,0,0,0,1.392.458,6.587,6.587,0,0,1,1.644.549,2.328,2.328,0,0,1,.886.765A1.952,1.952,0,0,1,90.6-2.249a2.065,2.065,0,0,1-.886,1.732,3.779,3.779,0,0,1-2.322.663,4.1,4.1,0,0,1-1.736-.352,2.857,2.857,0,0,1-1.187-.967A2.288,2.288,0,0,1,84.045-2.5h1.729a1.254,1.254,0,0,0,.476.97,1.85,1.85,0,0,0,1.165.341,1.8,1.8,0,0,0,1.069-.267A.827.827,0,0,0,88.85-2.153ZM96.885,0a2.747,2.747,0,0,1-.205-.74A2.77,2.77,0,0,1,94.6.146a2.8,2.8,0,0,1-1.948-.681A2.179,2.179,0,0,1,91.9-2.219a2.25,2.25,0,0,1,.941-1.945,4.561,4.561,0,0,1,2.692-.677h1.091v-.52a1.388,1.388,0,0,0-.344-.985,1.365,1.365,0,0,0-1.047-.37,1.568,1.568,0,0,0-1,.3.941.941,0,0,0-.388.773h-1.78A1.975,1.975,0,0,1,92.5-6.859a2.879,2.879,0,0,1,1.176-.89,4.129,4.129,0,0,1,1.659-.322,3.325,3.325,0,0,1,2.219.7,2.494,2.494,0,0,1,.85,1.967v3.574a4.051,4.051,0,0,0,.3,1.707V0ZM94.929-1.282a2.025,2.025,0,0,0,.992-.256,1.713,1.713,0,0,0,.7-.688V-3.721h-.959a2.624,2.624,0,0,0-1.487.344,1.115,1.115,0,0,0-.5.974,1.04,1.04,0,0,0,.341.817A1.319,1.319,0,0,0,94.929-1.282Zm9.778-.872a.807.807,0,0,0-.392-.725,4.167,4.167,0,0,0-1.3-.439A6.683,6.683,0,0,1,101.5-3.8a2.023,2.023,0,0,1-1.333-1.868,2.109,2.109,0,0,1,.864-1.714,3.417,3.417,0,0,1,2.2-.688,3.555,3.555,0,0,1,2.3.7,2.231,2.231,0,0,1,.875,1.824h-1.78a1.1,1.1,0,0,0-.381-.853,1.46,1.46,0,0,0-1.011-.341,1.577,1.577,0,0,0-.956.271.854.854,0,0,0-.37.725.721.721,0,0,0,.344.637,4.734,4.734,0,0,0,1.392.458,6.587,6.587,0,0,1,1.644.549,2.328,2.328,0,0,1,.886.765,1.952,1.952,0,0,1,.289,1.084,2.065,2.065,0,0,1-.886,1.732,3.779,3.779,0,0,1-2.322.663,4.1,4.1,0,0,1-1.736-.352,2.857,2.857,0,0,1-1.187-.967A2.288,2.288,0,0,1,99.9-2.5h1.729a1.254,1.254,0,0,0,.476.97,1.85,1.85,0,0,0,1.165.341,1.8,1.8,0,0,0,1.069-.267A.827.827,0,0,0,104.707-2.153Zm6.7-1.868a4.712,4.712,0,0,1,.85-2.941,2.722,2.722,0,0,1,2.278-1.11,2.587,2.587,0,0,1,2.036.879V-11.25h1.78V0h-1.611l-.088-.82a2.624,2.624,0,0,1-2.131.967,2.707,2.707,0,0,1-2.252-1.121A4.884,4.884,0,0,1,111.409-4.021Zm1.78.154a3.3,3.3,0,0,0,.465,1.886,1.509,1.509,0,0,0,1.322.677,1.681,1.681,0,0,0,1.6-.974V-5.662a1.655,1.655,0,0,0-1.582-.952,1.52,1.52,0,0,0-1.333.685A3.674,3.674,0,0,0,113.188-3.867ZM123.7.146a3.682,3.682,0,0,1-2.743-1.066A3.866,3.866,0,0,1,119.9-3.757v-.22a4.755,4.755,0,0,1,.458-2.12,3.484,3.484,0,0,1,1.285-1.454,3.4,3.4,0,0,1,1.846-.52,3.11,3.11,0,0,1,2.5,1.033,4.367,4.367,0,0,1,.883,2.922V-3.4H121.7a2.38,2.38,0,0,0,.656,1.553,1.968,1.968,0,0,0,1.447.571,2.41,2.41,0,0,0,1.992-.989l.959.916a3.2,3.2,0,0,1-1.271,1.1A3.978,3.978,0,0,1,123.7.146Zm-.212-6.79a1.5,1.5,0,0,0-1.183.513,2.657,2.657,0,0,0-.575,1.428h3.391v-.132a2.163,2.163,0,0,0-.476-1.351A1.487,1.487,0,0,0,123.486-6.643Zm10.181-1.282.051.828A2.852,2.852,0,0,1,136-8.071a2.191,2.191,0,0,1,2.175,1.216,2.811,2.811,0,0,1,2.432-1.216,2.471,2.471,0,0,1,1.952.725,3.192,3.192,0,0,1,.656,2.139V0h-1.78V-5.156a1.576,1.576,0,0,0-.33-1.106,1.443,1.443,0,0,0-1.091-.352,1.482,1.482,0,0,0-.992.326,1.719,1.719,0,0,0-.538.853L138.494,0h-1.78V-5.215a1.27,1.27,0,0,0-1.428-1.4,1.567,1.567,0,0,0-1.516.872V0h-1.78V-7.925ZM149.78,0a2.747,2.747,0,0,1-.205-.74,2.77,2.77,0,0,1-2.08.886,2.8,2.8,0,0,1-1.948-.681,2.179,2.179,0,0,1-.754-1.685,2.25,2.25,0,0,1,.941-1.945,4.561,4.561,0,0,1,2.692-.677h1.091v-.52a1.388,1.388,0,0,0-.344-.985,1.365,1.365,0,0,0-1.047-.37,1.568,1.568,0,0,0-1,.3.941.941,0,0,0-.388.773h-1.78a1.975,1.975,0,0,1,.432-1.219,2.879,2.879,0,0,1,1.176-.89,4.129,4.129,0,0,1,1.659-.322,3.325,3.325,0,0,1,2.219.7,2.494,2.494,0,0,1,.85,1.967v3.574a4.051,4.051,0,0,0,.3,1.707V0Zm-1.956-1.282a2.025,2.025,0,0,0,.992-.256,1.713,1.713,0,0,0,.7-.688V-3.721h-.959a2.624,2.624,0,0,0-1.487.344,1.115,1.115,0,0,0-.5.974,1.04,1.04,0,0,0,.341.817A1.319,1.319,0,0,0,147.825-1.282Zm6.987-6.643.051.916a2.849,2.849,0,0,1,2.307-1.062q2.476,0,2.52,2.834V0h-1.78V-5.134a1.632,1.632,0,0,0-.326-1.117,1.371,1.371,0,0,0-1.066-.363,1.715,1.715,0,0,0-1.6.974V0h-1.78V-7.925ZM164.993.146A3.682,3.682,0,0,1,162.25-.919,3.866,3.866,0,0,1,161.2-3.757v-.22a4.755,4.755,0,0,1,.458-2.12,3.484,3.484,0,0,1,1.285-1.454,3.4,3.4,0,0,1,1.846-.52,3.11,3.11,0,0,1,2.5,1.033,4.367,4.367,0,0,1,.883,2.922V-3.4h-5.178a2.38,2.38,0,0,0,.656,1.553,1.968,1.968,0,0,0,1.447.571,2.41,2.41,0,0,0,1.992-.989l.959.916a3.2,3.2,0,0,1-1.271,1.1A3.978,3.978,0,0,1,164.993.146Zm-.212-6.79a1.5,1.5,0,0,0-1.183.513,2.657,2.657,0,0,0-.575,1.428h3.391v-.132a2.163,2.163,0,0,0-.476-1.351A1.487,1.487,0,0,0,164.78-6.643ZM173.7-6.3a4.4,4.4,0,0,0-.725-.059,1.633,1.633,0,0,0-1.648.938V0h-1.78V-7.925h1.7l.044.886a2.005,2.005,0,0,1,1.787-1.033,1.666,1.666,0,0,1,.63.1Zm5.64,6.3a2.747,2.747,0,0,1-.205-.74,2.77,2.77,0,0,1-2.08.886,2.8,2.8,0,0,1-1.948-.681,2.179,2.179,0,0,1-.754-1.685,2.25,2.25,0,0,1,.941-1.945,4.561,4.561,0,0,1,2.692-.677h1.091v-.52a1.388,1.388,0,0,0-.344-.985,1.365,1.365,0,0,0-1.047-.37,1.568,1.568,0,0,0-1,.3.941.941,0,0,0-.388.773h-1.78a1.975,1.975,0,0,1,.432-1.219,2.879,2.879,0,0,1,1.176-.89,4.129,4.129,0,0,1,1.659-.322,3.325,3.325,0,0,1,2.219.7,2.494,2.494,0,0,1,.85,1.967v3.574a4.051,4.051,0,0,0,.3,1.707V0Zm-1.956-1.282a2.025,2.025,0,0,0,.992-.256,1.713,1.713,0,0,0,.7-.688V-3.721h-.959a2.624,2.624,0,0,0-1.487.344,1.115,1.115,0,0,0-.5.974,1.04,1.04,0,0,0,.341.817A1.319,1.319,0,0,0,177.385-1.282Zm8.738-2.739a4.712,4.712,0,0,1,.85-2.941,2.722,2.722,0,0,1,2.278-1.11,2.587,2.587,0,0,1,2.036.879V-11.25h1.78V0h-1.611l-.088-.82a2.624,2.624,0,0,1-2.131.967,2.707,2.707,0,0,1-2.252-1.121A4.884,4.884,0,0,1,186.123-4.021Zm1.78.154a3.3,3.3,0,0,0,.465,1.886,1.509,1.509,0,0,0,1.322.677,1.681,1.681,0,0,0,1.6-.974V-5.662a1.655,1.655,0,0,0-1.582-.952,1.52,1.52,0,0,0-1.333.685A3.674,3.674,0,0,0,187.9-3.867ZM196.816,0h-1.78V-7.925h1.78Zm-1.89-9.983a.945.945,0,0,1,.26-.681.982.982,0,0,1,.743-.271,1,1,0,0,1,.747.271.937.937,0,0,1,.264.681.916.916,0,0,1-.264.67,1,1,0,0,1-.747.267.99.99,0,0,1-.743-.267A.923.923,0,0,1,194.927-9.983ZM199.38,0V-6.606h-1.208V-7.925h1.208V-8.65a2.722,2.722,0,0,1,.732-2.036,2.806,2.806,0,0,1,2.051-.718,4.113,4.113,0,0,1,1,.132l-.044,1.392a3.506,3.506,0,0,0-.681-.059,1.143,1.143,0,0,0-1.274,1.311v.7h1.611v1.318H201.16V0Zm8.005.146a3.682,3.682,0,0,1-2.743-1.066,3.866,3.866,0,0,1-1.051-2.838v-.22a4.755,4.755,0,0,1,.458-2.12,3.484,3.484,0,0,1,1.285-1.454,3.4,3.4,0,0,1,1.846-.52,3.11,3.11,0,0,1,2.5,1.033,4.367,4.367,0,0,1,.883,2.922V-3.4h-5.178a2.38,2.38,0,0,0,.656,1.553,1.968,1.968,0,0,0,1.447.571,2.41,2.41,0,0,0,1.992-.989l.959.916a3.2,3.2,0,0,1-1.271,1.1A3.978,3.978,0,0,1,207.385.146Zm-.212-6.79a1.5,1.5,0,0,0-1.183.513,2.657,2.657,0,0,0-.575,1.428h3.391v-.132a2.163,2.163,0,0,0-.476-1.351A1.487,1.487,0,0,0,207.173-6.643Zm8.921.344a4.4,4.4,0,0,0-.725-.059,1.633,1.633,0,0,0-1.648.938V0h-1.78V-7.925h1.7l.044.886a2.005,2.005,0,0,1,1.787-1.033,1.666,1.666,0,0,1,.63.1ZM220.569.146a3.682,3.682,0,0,1-2.743-1.066,3.866,3.866,0,0,1-1.051-2.838v-.22a4.755,4.755,0,0,1,.458-2.12,3.484,3.484,0,0,1,1.285-1.454,3.4,3.4,0,0,1,1.846-.52,3.11,3.11,0,0,1,2.5,1.033,4.367,4.367,0,0,1,.883,2.922V-3.4h-5.178a2.38,2.38,0,0,0,.656,1.553,1.968,1.968,0,0,0,1.447.571,2.41,2.41,0,0,0,1.992-.989l.959.916a3.2,3.2,0,0,1-1.271,1.1A3.978,3.978,0,0,1,220.569.146Zm-.212-6.79a1.5,1.5,0,0,0-1.183.513A2.657,2.657,0,0,0,218.6-4.7h3.391v-.132a2.163,2.163,0,0,0-.476-1.351A1.487,1.487,0,0,0,220.356-6.643Zm6.423-1.282.051.916a2.849,2.849,0,0,1,2.307-1.062q2.476,0,2.52,2.834V0h-1.78V-5.134a1.632,1.632,0,0,0-.326-1.117,1.371,1.371,0,0,0-1.066-.363,1.715,1.715,0,0,0-1.6.974V0H225.1V-7.925ZM235.7-9.851v1.926h1.4v1.318h-1.4v4.424a.974.974,0,0,0,.179.656.832.832,0,0,0,.641.2,2.742,2.742,0,0,0,.623-.073V-.022a4.383,4.383,0,0,1-1.172.168q-2.051,0-2.051-2.263v-4.49h-1.3V-7.925h1.3V-9.851Zm6.248,10a3.682,3.682,0,0,1-2.743-1.066,3.866,3.866,0,0,1-1.051-2.838v-.22a4.755,4.755,0,0,1,.458-2.12A3.484,3.484,0,0,1,239.9-7.551a3.4,3.4,0,0,1,1.846-.52,3.11,3.11,0,0,1,2.5,1.033,4.367,4.367,0,0,1,.883,2.922V-3.4h-5.178a2.38,2.38,0,0,0,.656,1.553,1.968,1.968,0,0,0,1.447.571,2.41,2.41,0,0,0,1.992-.989l.959.916a3.2,3.2,0,0,1-1.271,1.1A3.978,3.978,0,0,1,241.948.146Zm-.212-6.79a1.5,1.5,0,0,0-1.183.513,2.657,2.657,0,0,0-.575,1.428h3.391v-.132a2.163,2.163,0,0,0-.476-1.351A1.487,1.487,0,0,0,241.736-6.643Z" transform="translate(668.928 527.578)" fill="#12263f"/>
    <g id="Grupo_112177" data-name="Grupo 112177" transform="translate(518.097 546.959)">
      <path id="Trazado_160205-2" data-name="Trazado 160205" d="M4.392,0H162.512A4.174,4.174,0,0,1,166.9,3.915V32.085A4.174,4.174,0,0,1,162.512,36H4.392A4.174,4.174,0,0,1,0,32.085V3.915A4.174,4.174,0,0,1,4.392,0Z" fill="#fff" stroke="#4752e3" stroke-width="2"/>
    </g>
    <g id="Grupo_112178" data-name="Grupo 112178" transform="translate(715.292 546.959)">
      <path id="Trazado_160205-3" data-name="Trazado 160205" d="M4.392,0H162.512A4.174,4.174,0,0,1,166.9,3.915V32.085A4.174,4.174,0,0,1,162.512,36H4.392A4.174,4.174,0,0,1,0,32.085V3.915A4.174,4.174,0,0,1,4.392,0Z" fill="#fff" stroke="#4752e3" stroke-width="2"/>
    </g>
    <g id="Grupo_112179" data-name="Grupo 112179" transform="translate(915 547.392)">
      <path id="Trazado_160205-4" data-name="Trazado 160205" d="M4.392,0H162.512A4.174,4.174,0,0,1,166.9,3.915V32.085A4.174,4.174,0,0,1,162.512,36H4.392A4.174,4.174,0,0,1,0,32.085V3.915A4.174,4.174,0,0,1,4.392,0Z" fill="#fff" stroke="#4752e3" stroke-width="2"/>
    </g>
    <path id="Trazado_162158" data-name="Trazado 162158" d="M3.149-3.757V0H.952V-10.664h4.16a4.813,4.813,0,0,1,2.113.439,3.238,3.238,0,0,1,1.4,1.249,3.482,3.482,0,0,1,.491,1.842A3.062,3.062,0,0,1,8.046-4.662a4.469,4.469,0,0,1-2.97.9Zm0-1.78H5.112a1.93,1.93,0,0,0,1.329-.41A1.492,1.492,0,0,0,6.9-7.119a1.759,1.759,0,0,0-.461-1.267,1.724,1.724,0,0,0-1.274-.5H3.149Zm11.792-.4A5.751,5.751,0,0,0,14.18-6a1.55,1.55,0,0,0-1.575.813V0H10.488V-7.925h2l.059.945a1.961,1.961,0,0,1,1.765-1.091,2.218,2.218,0,0,1,.659.1Zm.425,1.9a4.7,4.7,0,0,1,.454-2.1,3.324,3.324,0,0,1,1.307-1.428,3.814,3.814,0,0,1,1.981-.505,3.609,3.609,0,0,1,2.618.981,3.939,3.939,0,0,1,1.132,2.666l.015.542A4.142,4.142,0,0,1,21.855-.956a3.539,3.539,0,0,1-2.732,1.1,3.556,3.556,0,0,1-2.736-1.1A4.215,4.215,0,0,1,15.366-3.94Zm2.117.15a2.962,2.962,0,0,0,.425,1.727,1.4,1.4,0,0,0,1.216.6,1.4,1.4,0,0,0,1.2-.591,3.241,3.241,0,0,0,.432-1.889,2.933,2.933,0,0,0-.432-1.716,1.4,1.4,0,0,0-1.216-.609,1.382,1.382,0,0,0-1.2.605A3.3,3.3,0,0,0,17.483-3.885Zm6.365-.136a4.776,4.776,0,0,1,.831-2.952,2.7,2.7,0,0,1,2.274-1.1,2.427,2.427,0,0,1,1.912.864V-11.25h2.124V0H29.077l-.1-.842a2.491,2.491,0,0,1-2.036.989,2.69,2.69,0,0,1-2.245-1.1A4.93,4.93,0,0,1,23.848-4.021Zm2.117.158a3.128,3.128,0,0,0,.388,1.709,1.265,1.265,0,0,0,1.128.594,1.416,1.416,0,0,0,1.384-.829V-5.521A1.4,1.4,0,0,0,27.5-6.35Q25.964-6.35,25.964-3.863ZM37.375-.806a2.654,2.654,0,0,1-2.168.952,2.5,2.5,0,0,1-1.945-.732,3.127,3.127,0,0,1-.685-2.146V-7.925h2.117V-2.8q0,1.239,1.128,1.239A1.528,1.528,0,0,0,37.3-2.308V-7.925h2.124V0H37.434Zm6.943-.754a1.388,1.388,0,0,0,.952-.322,1.129,1.129,0,0,0,.381-.857h1.985A2.715,2.715,0,0,1,47.2-1.263a2.9,2.9,0,0,1-1.183,1.04,3.7,3.7,0,0,1-1.659.37,3.44,3.44,0,0,1-2.681-1.08,4.275,4.275,0,0,1-.981-2.985v-.139a4.226,4.226,0,0,1,.974-2.922,3.4,3.4,0,0,1,2.673-1.091,3.333,3.333,0,0,1,2.384.846,3,3,0,0,1,.912,2.252H45.652a1.455,1.455,0,0,0-.381-1.005,1.27,1.27,0,0,0-.967-.387,1.275,1.275,0,0,0-1.117.539,3.125,3.125,0,0,0-.377,1.749v.22A3.164,3.164,0,0,0,43.184-2.1,1.291,1.291,0,0,0,44.319-1.56Zm7.061-8.313v1.948h1.355v1.553H51.379v3.955a.944.944,0,0,0,.168.63.846.846,0,0,0,.645.19,3.376,3.376,0,0,0,.623-.051v1.6a4.358,4.358,0,0,1-1.282.19A2.021,2.021,0,0,1,49.263-2.1v-4.27H48.105V-7.925h1.157V-9.873Zm1.985,5.837a4.7,4.7,0,0,1,.454-2.1,3.324,3.324,0,0,1,1.307-1.428,3.814,3.814,0,0,1,1.981-.505,3.609,3.609,0,0,1,2.618.981,3.939,3.939,0,0,1,1.132,2.666l.015.542A4.142,4.142,0,0,1,59.854-.956a3.539,3.539,0,0,1-2.732,1.1,3.556,3.556,0,0,1-2.736-1.1A4.215,4.215,0,0,1,53.364-3.94Zm2.117.15a2.962,2.962,0,0,0,.425,1.727,1.4,1.4,0,0,0,1.216.6,1.4,1.4,0,0,0,1.2-.591,3.241,3.241,0,0,0,.432-1.889,2.933,2.933,0,0,0-.432-1.716,1.4,1.4,0,0,0-1.216-.609,1.382,1.382,0,0,0-1.2.605A3.3,3.3,0,0,0,55.481-3.885Z" transform="translate(565.503 570.392)" fill="#12263f"/>
    <path id="Trazado_162159" data-name="Trazado 162159" d="M3.149-3.757V0H.952V-10.664h4.16a4.813,4.813,0,0,1,2.113.439,3.238,3.238,0,0,1,1.4,1.249,3.482,3.482,0,0,1,.491,1.842A3.062,3.062,0,0,1,8.046-4.662a4.469,4.469,0,0,1-2.97.9Zm0-1.78H5.112a1.93,1.93,0,0,0,1.329-.41A1.492,1.492,0,0,0,6.9-7.119a1.759,1.759,0,0,0-.461-1.267,1.724,1.724,0,0,0-1.274-.5H3.149Zm11.792-.4A5.751,5.751,0,0,0,14.18-6a1.55,1.55,0,0,0-1.575.813V0H10.488V-7.925h2l.059.945a1.961,1.961,0,0,1,1.765-1.091,2.218,2.218,0,0,1,.659.1Zm.425,1.9a4.7,4.7,0,0,1,.454-2.1,3.324,3.324,0,0,1,1.307-1.428,3.814,3.814,0,0,1,1.981-.505,3.609,3.609,0,0,1,2.618.981,3.939,3.939,0,0,1,1.132,2.666l.015.542A4.142,4.142,0,0,1,21.855-.956a3.539,3.539,0,0,1-2.732,1.1,3.556,3.556,0,0,1-2.736-1.1A4.215,4.215,0,0,1,15.366-3.94Zm2.117.15a2.962,2.962,0,0,0,.425,1.727,1.4,1.4,0,0,0,1.216.6,1.4,1.4,0,0,0,1.2-.591,3.241,3.241,0,0,0,.432-1.889,2.933,2.933,0,0,0-.432-1.716,1.4,1.4,0,0,0-1.216-.609,1.382,1.382,0,0,0-1.2.605A3.3,3.3,0,0,0,17.483-3.885Zm9.99,2.325a1.388,1.388,0,0,0,.952-.322,1.129,1.129,0,0,0,.381-.857h1.985a2.715,2.715,0,0,1-.439,1.476,2.9,2.9,0,0,1-1.183,1.04,3.7,3.7,0,0,1-1.659.37,3.44,3.44,0,0,1-2.681-1.08,4.275,4.275,0,0,1-.981-2.985v-.139a4.226,4.226,0,0,1,.974-2.922A3.4,3.4,0,0,1,27.5-8.071a3.333,3.333,0,0,1,2.384.846,3,3,0,0,1,.912,2.252H28.806a1.455,1.455,0,0,0-.381-1.005,1.27,1.27,0,0,0-.967-.387,1.275,1.275,0,0,0-1.117.539,3.125,3.125,0,0,0-.377,1.749v.22A3.164,3.164,0,0,0,26.338-2.1,1.291,1.291,0,0,0,27.473-1.56ZM35.647.146A3.89,3.89,0,0,1,32.809-.923a3.8,3.8,0,0,1-1.095-2.849v-.205a4.787,4.787,0,0,1,.461-2.135,3.386,3.386,0,0,1,1.307-1.45,3.669,3.669,0,0,1,1.93-.509,3.289,3.289,0,0,1,2.56,1.025,4.167,4.167,0,0,1,.934,2.908v.864H33.86a1.966,1.966,0,0,0,.619,1.245,1.871,1.871,0,0,0,1.307.469A2.285,2.285,0,0,0,37.7-2.446l1.04,1.165A3.178,3.178,0,0,1,37.449-.231,4.229,4.229,0,0,1,35.647.146Zm-.242-6.511a1.323,1.323,0,0,0-1.022.427,2.209,2.209,0,0,0-.5,1.221h2.944v-.169a1.576,1.576,0,0,0-.381-1.092A1.365,1.365,0,0,0,35.405-6.365ZM44.4-2.19a.682.682,0,0,0-.385-.612,4.368,4.368,0,0,0-1.234-.4q-2.827-.593-2.827-2.4a2.178,2.178,0,0,1,.875-1.761,3.531,3.531,0,0,1,2.289-.707,3.8,3.8,0,0,1,2.413.71,2.239,2.239,0,0,1,.9,1.846H44.319a1.024,1.024,0,0,0-.293-.751,1.24,1.24,0,0,0-.916-.3,1.267,1.267,0,0,0-.828.242.763.763,0,0,0-.293.615.652.652,0,0,0,.333.568,3.428,3.428,0,0,0,1.124.374,9.183,9.183,0,0,1,1.333.355,2.19,2.19,0,0,1,1.677,2.131,2.067,2.067,0,0,1-.93,1.754,4.013,4.013,0,0,1-2.4.67,4.191,4.191,0,0,1-1.769-.355,2.968,2.968,0,0,1-1.212-.974A2.263,2.263,0,0,1,39.7-2.52h2.007a1.105,1.105,0,0,0,.417.864,1.656,1.656,0,0,0,1.04.3,1.533,1.533,0,0,0,.919-.231A.718.718,0,0,0,44.4-2.19ZM47.49-4.036a4.7,4.7,0,0,1,.454-2.1,3.324,3.324,0,0,1,1.307-1.428,3.814,3.814,0,0,1,1.981-.505,3.609,3.609,0,0,1,2.618.981,3.939,3.939,0,0,1,1.132,2.666L55-3.882A4.142,4.142,0,0,1,53.979-.956a3.539,3.539,0,0,1-2.732,1.1,3.556,3.556,0,0,1-2.736-1.1A4.215,4.215,0,0,1,47.49-3.94Zm2.117.15a2.962,2.962,0,0,0,.425,1.727,1.4,1.4,0,0,0,1.216.6,1.4,1.4,0,0,0,1.2-.591,3.241,3.241,0,0,0,.432-1.889,2.933,2.933,0,0,0-.432-1.716,1.4,1.4,0,0,0-1.216-.609,1.382,1.382,0,0,0-1.2.605A3.3,3.3,0,0,0,49.607-3.885Z" transform="translate(771.272 570.392)" fill="#12263f"/>
    <path id="Trazado_162160" data-name="Trazado 162160" d="M6.482-2.8a1.128,1.128,0,0,0-.439-.956,5.764,5.764,0,0,0-1.582-.7,11.215,11.215,0,0,1-1.809-.729A2.956,2.956,0,0,1,.835-7.83a2.575,2.575,0,0,1,.487-1.542,3.177,3.177,0,0,1,1.4-1.058,5.265,5.265,0,0,1,2.047-.381A4.793,4.793,0,0,1,6.8-10.4,3.242,3.242,0,0,1,8.192-9.229a3.057,3.057,0,0,1,.494,1.714h-2.2a1.438,1.438,0,0,0-.461-1.139,1.9,1.9,0,0,0-1.3-.406,2.026,2.026,0,0,0-1.252.341,1.074,1.074,0,0,0-.447.9,1.029,1.029,0,0,0,.524.872A5.916,5.916,0,0,0,5.1-6.292a6.661,6.661,0,0,1,2.732,1.4,2.786,2.786,0,0,1,.857,2.08A2.566,2.566,0,0,1,7.639-.641a4.585,4.585,0,0,1-2.82.787A5.445,5.445,0,0,1,2.578-.3,3.546,3.546,0,0,1,1.036-1.538,3.161,3.161,0,0,1,.505-3.354h2.2q0,1.765,2.109,1.765a2.052,2.052,0,0,0,1.223-.319A1.037,1.037,0,0,0,6.482-2.8Zm7.2,2.944A3.89,3.89,0,0,1,10.844-.923,3.8,3.8,0,0,1,9.749-3.772v-.205a4.787,4.787,0,0,1,.461-2.135,3.386,3.386,0,0,1,1.307-1.45,3.669,3.669,0,0,1,1.93-.509,3.289,3.289,0,0,1,2.56,1.025,4.167,4.167,0,0,1,.934,2.908v.864H11.895a1.966,1.966,0,0,0,.619,1.245,1.871,1.871,0,0,0,1.307.469,2.285,2.285,0,0,0,1.912-.886l1.04,1.165A3.178,3.178,0,0,1,15.483-.231,4.229,4.229,0,0,1,13.682.146ZM13.44-6.365a1.323,1.323,0,0,0-1.022.427,2.209,2.209,0,0,0-.5,1.221h2.944v-.169a1.576,1.576,0,0,0-.381-1.092A1.365,1.365,0,0,0,13.44-6.365ZM22.6-5.94A5.751,5.751,0,0,0,21.833-6a1.55,1.55,0,0,0-1.575.813V0H18.142V-7.925h2l.059.945a1.961,1.961,0,0,1,1.765-1.091,2.218,2.218,0,0,1,.659.1Zm4.116,3.354,1.472-5.339H30.4L27.722,0H25.7L23.027-7.925h2.212ZM33.56,0H31.436V-7.925H33.56ZM31.311-9.976a1.042,1.042,0,0,1,.319-.784,1.2,1.2,0,0,1,.868-.308,1.2,1.2,0,0,1,.864.308,1.036,1.036,0,0,1,.322.784,1.039,1.039,0,0,1-.326.791,1.2,1.2,0,0,1-.861.308,1.2,1.2,0,0,1-.861-.308A1.039,1.039,0,0,1,31.311-9.976ZM38.6-1.56a1.388,1.388,0,0,0,.952-.322,1.129,1.129,0,0,0,.381-.857h1.985a2.715,2.715,0,0,1-.439,1.476,2.9,2.9,0,0,1-1.183,1.04,3.7,3.7,0,0,1-1.659.37,3.44,3.44,0,0,1-2.681-1.08,4.275,4.275,0,0,1-.981-2.985v-.139a4.226,4.226,0,0,1,.974-2.922,3.4,3.4,0,0,1,2.673-1.091A3.333,3.333,0,0,1,41-7.225a3,3,0,0,1,.912,2.252H39.932a1.455,1.455,0,0,0-.381-1.005,1.27,1.27,0,0,0-.967-.387,1.275,1.275,0,0,0-1.117.539,3.125,3.125,0,0,0-.377,1.749v.22A3.164,3.164,0,0,0,37.463-2.1,1.291,1.291,0,0,0,38.6-1.56ZM45.359,0H43.235V-7.925h2.124ZM43.11-9.976a1.042,1.042,0,0,1,.319-.784,1.2,1.2,0,0,1,.868-.308,1.2,1.2,0,0,1,.864.308,1.036,1.036,0,0,1,.322.784,1.039,1.039,0,0,1-.326.791,1.2,1.2,0,0,1-.861.308,1.2,1.2,0,0,1-.861-.308A1.039,1.039,0,0,1,43.11-9.976Zm3.662,5.94a4.7,4.7,0,0,1,.454-2.1,3.324,3.324,0,0,1,1.307-1.428,3.814,3.814,0,0,1,1.981-.505,3.609,3.609,0,0,1,2.618.981,3.939,3.939,0,0,1,1.132,2.666l.015.542A4.142,4.142,0,0,1,53.262-.956,3.539,3.539,0,0,1,50.53.146a3.556,3.556,0,0,1-2.736-1.1A4.215,4.215,0,0,1,46.772-3.94Zm2.117.15a2.962,2.962,0,0,0,.425,1.727,1.4,1.4,0,0,0,1.216.6,1.4,1.4,0,0,0,1.2-.591,3.241,3.241,0,0,0,.432-1.889,2.933,2.933,0,0,0-.432-1.716,1.4,1.4,0,0,0-1.216-.609,1.382,1.382,0,0,0-1.2.605A3.3,3.3,0,0,0,48.889-3.885Z" transform="translate(976.89 570.392)" fill="#12263f"/>
    <g id="Grupo_112183" data-name="Grupo 112183" transform="translate(495 499.523)" opacity="0.35">
      <path id="Trazado_160205-5" data-name="Trazado 160205" d="M16.053,0H593.947C602.813,0,610,5.346,610,11.94V97.865c0,6.594-7.187,11.94-16.053,11.94H16.053C7.187,109.805,0,104.459,0,97.865V11.94C0,5.346,7.187,0,16.053,0Z" transform="translate(0)" fill="none" stroke="#f85316" stroke-width="2"/>
    </g>
    <path id="Trazado_160205-6" data-name="Trazado 160205" d="M21.579,0H798.421A21.551,21.551,0,0,1,820,21.522V176.409a21.551,21.551,0,0,1-21.579,21.522H21.579A21.551,21.551,0,0,1,0,176.409V21.522A21.551,21.551,0,0,1,21.579,0Z" transform="translate(390 686.367)" fill="#3d46c2" stroke="#4752e3" stroke-width="2" opacity="0.148"/>
    <path id="Trazado_162165" data-name="Trazado 162165" d="M7.778-3.357A1.353,1.353,0,0,0,7.251-4.5a6.917,6.917,0,0,0-1.9-.844,13.458,13.458,0,0,1-2.171-.875A3.547,3.547,0,0,1,1-9.4a3.09,3.09,0,0,1,.584-1.85,3.812,3.812,0,0,1,1.679-1.27,6.318,6.318,0,0,1,2.457-.457,5.751,5.751,0,0,1,2.443.5,3.891,3.891,0,0,1,1.666,1.4,3.668,3.668,0,0,1,.593,2.057H7.787a1.726,1.726,0,0,0-.554-1.367,2.276,2.276,0,0,0-1.556-.488,2.432,2.432,0,0,0-1.5.409,1.289,1.289,0,0,0-.536,1.077,1.235,1.235,0,0,0,.628,1.046,7.1,7.1,0,0,0,1.85.791A7.994,7.994,0,0,1,9.4-5.871a3.343,3.343,0,0,1,1.028,2.5A3.08,3.08,0,0,1,9.167-.769,5.5,5.5,0,0,1,5.783.176,6.534,6.534,0,0,1,3.094-.365a4.256,4.256,0,0,1-1.85-1.481,3.793,3.793,0,0,1-.637-2.18H3.252q0,2.118,2.531,2.118A2.462,2.462,0,0,0,7.251-2.29,1.244,1.244,0,0,0,7.778-3.357ZM14.722,0H12.173V-9.51h2.549Zm-2.7-11.971a1.251,1.251,0,0,1,.382-.94,1.436,1.436,0,0,1,1.042-.369,1.44,1.44,0,0,1,1.037.369,1.244,1.244,0,0,1,.387.94,1.247,1.247,0,0,1-.391.949,1.443,1.443,0,0,1-1.033.369,1.443,1.443,0,0,1-1.033-.369A1.247,1.247,0,0,1,12.023-11.971Zm9.94,9.343a.818.818,0,0,0-.461-.734,5.241,5.241,0,0,0-1.481-.479q-3.393-.712-3.393-2.883a2.613,2.613,0,0,1,1.05-2.114,4.237,4.237,0,0,1,2.747-.848,4.56,4.56,0,0,1,2.9.853,2.687,2.687,0,0,1,1.085,2.215h-2.54a1.229,1.229,0,0,0-.352-.9,1.488,1.488,0,0,0-1.1-.356,1.52,1.52,0,0,0-.993.29.916.916,0,0,0-.352.738.783.783,0,0,0,.4.681,4.114,4.114,0,0,0,1.349.448,11.019,11.019,0,0,1,1.6.426,2.628,2.628,0,0,1,2.013,2.558,2.481,2.481,0,0,1-1.116,2.1,4.815,4.815,0,0,1-2.883.8A5.029,5.029,0,0,1,18.312-.25a3.561,3.561,0,0,1-1.455-1.169,2.716,2.716,0,0,1-.527-1.6h2.408a1.326,1.326,0,0,0,.5,1.037,1.987,1.987,0,0,0,1.248.36,1.839,1.839,0,0,0,1.1-.277A.861.861,0,0,0,21.964-2.628Zm7.146-9.22V-9.51h1.626v1.863H29.109V-2.9a1.133,1.133,0,0,0,.2.756,1.015,1.015,0,0,0,.773.229,4.051,4.051,0,0,0,.747-.062V-.053a5.229,5.229,0,0,1-1.538.229,2.425,2.425,0,0,1-2.725-2.7V-7.646H25.181V-9.51h1.389v-2.338ZM36.527.176a4.668,4.668,0,0,1-3.406-1.283,4.561,4.561,0,0,1-1.314-3.419v-.246a5.745,5.745,0,0,1,.554-2.562,4.064,4.064,0,0,1,1.569-1.74,4.4,4.4,0,0,1,2.316-.611,3.947,3.947,0,0,1,3.072,1.23,5,5,0,0,1,1.121,3.489v1.037H34.383a2.36,2.36,0,0,0,.743,1.494,2.245,2.245,0,0,0,1.569.563,2.742,2.742,0,0,0,2.294-1.063l1.248,1.4A3.813,3.813,0,0,1,38.689-.277,5.075,5.075,0,0,1,36.527.176Zm-.29-7.813a1.587,1.587,0,0,0-1.226.512,2.651,2.651,0,0,0-.6,1.466h3.533v-.2a1.891,1.891,0,0,0-.457-1.311A1.638,1.638,0,0,0,36.237-7.638ZM44.262-9.51l.079,1.063a3.342,3.342,0,0,1,2.733-1.239A2.536,2.536,0,0,1,49.6-8.235a3.265,3.265,0,0,1,2.856-1.45,2.836,2.836,0,0,1,2.3.9,4.141,4.141,0,0,1,.756,2.711V0H52.963V-6.064a1.811,1.811,0,0,0-.316-1.182A1.4,1.4,0,0,0,51.53-7.62a1.585,1.585,0,0,0-1.582,1.09L49.957,0h-2.54V-6.056a1.789,1.789,0,0,0-.325-1.2,1.416,1.416,0,0,0-1.107-.369,1.646,1.646,0,0,0-1.564.9V0H41.88V-9.51ZM62.974,0a2.821,2.821,0,0,1-.255-.853,3.073,3.073,0,0,1-2.4,1.028A3.376,3.376,0,0,1,58-.633a2.6,2.6,0,0,1-.918-2.039,2.687,2.687,0,0,1,1.121-2.32,5.529,5.529,0,0,1,3.239-.817h1.169v-.545a1.567,1.567,0,0,0-.338-1.055,1.331,1.331,0,0,0-1.068-.4A1.513,1.513,0,0,0,60.2-7.5a1.045,1.045,0,0,0-.365.844H57.3a2.551,2.551,0,0,1,.51-1.529,3.37,3.37,0,0,1,1.441-1.1,5.253,5.253,0,0,1,2.092-.4,4.15,4.15,0,0,1,2.791.883,3.09,3.09,0,0,1,1.033,2.483V-2.2A4.546,4.546,0,0,0,65.54-.149V0Zm-2.1-1.767a2.188,2.188,0,0,0,1.037-.25,1.645,1.645,0,0,0,.7-.672V-4.324h-.949q-1.907,0-2.03,1.318l-.009.149a1.017,1.017,0,0,0,.334.782A1.3,1.3,0,0,0,60.873-1.767Zm11.391-.861a.818.818,0,0,0-.461-.734,5.241,5.241,0,0,0-1.481-.479q-3.393-.712-3.393-2.883a2.613,2.613,0,0,1,1.05-2.114,4.237,4.237,0,0,1,2.747-.848,4.56,4.56,0,0,1,2.9.853,2.687,2.687,0,0,1,1.085,2.215h-2.54a1.229,1.229,0,0,0-.352-.9,1.488,1.488,0,0,0-1.1-.356,1.52,1.52,0,0,0-.993.29.916.916,0,0,0-.352.738.783.783,0,0,0,.4.681,4.114,4.114,0,0,0,1.349.448,11.019,11.019,0,0,1,1.6.426,2.628,2.628,0,0,1,2.013,2.558,2.481,2.481,0,0,1-1.116,2.1,4.815,4.815,0,0,1-2.883.8A5.029,5.029,0,0,1,68.612-.25a3.561,3.561,0,0,1-1.455-1.169,2.716,2.716,0,0,1-.527-1.6h2.408a1.326,1.326,0,0,0,.5,1.037,1.987,1.987,0,0,0,1.248.36,1.839,1.839,0,0,0,1.1-.277A.861.861,0,0,0,72.264-2.628Z" transform="translate(762.333 864.253)" fill="#12263f"/>
    <path id="Trazado_158075" data-name="Trazado 158075" d="M3.688,0H159.312C161.349,0,163,2.066,163,4.615V31.385c0,2.549-1.651,4.615-3.688,4.615H3.688C1.651,36,0,33.934,0,31.385V4.615C0,2.066,1.651,0,3.688,0Z" transform="translate(473 785.463)" fill="#3d46c2"/>
    <path id="Trazado_160212" data-name="Trazado 160212" d="M3.688,0H159.312C161.349,0,163,2.066,163,4.615V31.385c0,2.549-1.651,4.615-3.688,4.615H3.688C1.651,36,0,33.934,0,31.385V4.615C0,2.066,1.651,0,3.688,0Z" transform="translate(959.865 785.332)" fill="#3d46c2"/>
    <path id="Trazado_162162" data-name="Trazado 162162" d="M3.359-1.883H8.336V0H1.016V-11.375H3.359ZM11.914,0H9.648V-8.453h2.266Zm-2.4-10.641a1.112,1.112,0,0,1,.34-.836,1.277,1.277,0,0,1,.926-.328,1.28,1.28,0,0,1,.922.328,1.105,1.105,0,0,1,.344.836A1.108,1.108,0,0,1,11.7-9.8a1.283,1.283,0,0,1-.918.328A1.283,1.283,0,0,1,9.863-9.8,1.108,1.108,0,0,1,9.516-10.641Zm3.906,6.352a5.094,5.094,0,0,1,.887-3.148,2.877,2.877,0,0,1,2.426-1.172,2.589,2.589,0,0,1,2.039.922V-12h2.266V0H19l-.109-.9A2.657,2.657,0,0,1,16.719.156,2.869,2.869,0,0,1,14.324-1.02,5.258,5.258,0,0,1,13.422-4.289Zm2.258.168A3.337,3.337,0,0,0,16.094-2.3a1.349,1.349,0,0,0,1.2.634,1.511,1.511,0,0,0,1.477-.884V-5.889a1.489,1.489,0,0,0-1.461-.884Q15.68-6.773,15.68-4.121Zm11,4.277A4.15,4.15,0,0,1,23.652-.984a4.054,4.054,0,0,1-1.168-3.039v-.219a5.106,5.106,0,0,1,.492-2.277,3.612,3.612,0,0,1,1.395-1.547,3.914,3.914,0,0,1,2.059-.543,3.508,3.508,0,0,1,2.73,1.094,4.444,4.444,0,0,1,1,3.1v.922H24.773a2.1,2.1,0,0,0,.66,1.328,2,2,0,0,0,1.395.5,2.437,2.437,0,0,0,2.039-.945l1.109,1.242A3.389,3.389,0,0,1,28.6-.246,4.511,4.511,0,0,1,26.68.156Zm-.258-6.945a1.411,1.411,0,0,0-1.09.455,2.357,2.357,0,0,0-.535,1.3h3.141v-.181a1.681,1.681,0,0,0-.406-1.165A1.456,1.456,0,0,0,26.422-6.789Zm9.766.453a6.134,6.134,0,0,0-.812-.062,1.654,1.654,0,0,0-1.68.867V0H31.438V-8.453H33.57l.063,1.008a2.092,2.092,0,0,1,1.883-1.164,2.366,2.366,0,0,1,.7.1ZM41.938,0a2.507,2.507,0,0,1-.227-.758,2.732,2.732,0,0,1-2.133.914A3,3,0,0,1,37.52-.562,2.312,2.312,0,0,1,36.7-2.375a2.389,2.389,0,0,1,1-2.062,4.915,4.915,0,0,1,2.879-.727h1.039v-.484a1.393,1.393,0,0,0-.3-.937,1.183,1.183,0,0,0-.949-.352,1.345,1.345,0,0,0-.895.273.929.929,0,0,0-.324.75H36.891a2.268,2.268,0,0,1,.453-1.359,3,3,0,0,1,1.281-.98,4.669,4.669,0,0,1,1.859-.355,3.689,3.689,0,0,1,2.48.785,2.747,2.747,0,0,1,.918,2.207v3.664a4.041,4.041,0,0,0,.336,1.82V0ZM40.07-1.57a1.945,1.945,0,0,0,.922-.223,1.462,1.462,0,0,0,.625-.6V-3.844h-.844q-1.7,0-1.8,1.172l-.008.133a.9.9,0,0,0,.3.7A1.153,1.153,0,0,0,40.07-1.57Zm8.141-.25h4.133V0H45.328V-1.375L49.3-6.633H45.445v-1.82h6.773v1.33ZM53.3-4.289a4.954,4.954,0,0,1,.926-3.133,3,3,0,0,1,2.5-1.187,2.631,2.631,0,0,1,2.164.953l.094-.8h2.047V-.281a3.613,3.613,0,0,1-.5,1.93A3.236,3.236,0,0,1,59.109,2.9a4.985,4.985,0,0,1-2.141.43,4.635,4.635,0,0,1-1.812-.371A3.217,3.217,0,0,1,53.82,2l1-1.375a2.645,2.645,0,0,0,2.047.945,1.936,1.936,0,0,0,1.4-.48,1.8,1.8,0,0,0,.5-1.363V-.727a2.612,2.612,0,0,1-2.055.883,2.992,2.992,0,0,1-2.465-1.191A4.953,4.953,0,0,1,53.3-4.2Zm2.258.168a3.085,3.085,0,0,0,.461,1.8,1.466,1.466,0,0,0,1.266.653,1.568,1.568,0,0,0,1.477-.775V-6A1.564,1.564,0,0,0,57.3-6.773a1.476,1.476,0,0,0-1.277.665A3.477,3.477,0,0,0,55.563-4.121ZM62.414-4.3A5.013,5.013,0,0,1,62.9-6.547,3.546,3.546,0,0,1,64.293-8.07a4.069,4.069,0,0,1,2.113-.539A3.849,3.849,0,0,1,69.2-7.562a4.2,4.2,0,0,1,1.207,2.844l.016.578A4.418,4.418,0,0,1,69.336-1.02,3.775,3.775,0,0,1,66.422.156,3.793,3.793,0,0,1,63.5-1.016,4.5,4.5,0,0,1,62.414-4.2Zm2.258.16A3.16,3.16,0,0,0,65.125-2.3a1.5,1.5,0,0,0,1.3.638,1.5,1.5,0,0,0,1.281-.63,3.457,3.457,0,0,0,.461-2.015A3.128,3.128,0,0,0,67.7-6.14a1.5,1.5,0,0,0-1.3-.649,1.474,1.474,0,0,0-1.281.646A3.516,3.516,0,0,0,64.672-4.144Z" transform="translate(519.5 807.963)" fill="#fff"/>
    <line id="Línea_251" data-name="Línea 251" x2="78.181" transform="translate(636.301 802.363)" fill="none" stroke="#3d46c2" stroke-width="2" stroke-dasharray="5"/>
    <line id="Línea_252" data-name="Línea 252" x2="78.181" transform="translate(881.531 802.363)" fill="none" stroke="#3d46c2" stroke-width="2" stroke-dasharray="5"/>
    <path id="Trazado_162164" data-name="Trazado 162164" d="M9.578-9.477H6.094V0H3.75V-9.477H.313v-1.9H9.578Zm5.43,3.141A6.134,6.134,0,0,0,14.2-6.4a1.654,1.654,0,0,0-1.68.867V0H10.258V-8.453h2.133l.063,1.008a2.092,2.092,0,0,1,1.883-1.164,2.366,2.366,0,0,1,.7.1ZM20.758,0a2.507,2.507,0,0,1-.227-.758A2.732,2.732,0,0,1,18.4.156,3,3,0,0,1,16.34-.562a2.312,2.312,0,0,1-.816-1.812,2.389,2.389,0,0,1,1-2.062A4.915,4.915,0,0,1,19.4-5.164h1.039v-.484a1.393,1.393,0,0,0-.3-.937,1.183,1.183,0,0,0-.949-.352,1.345,1.345,0,0,0-.895.273.929.929,0,0,0-.324.75H15.711a2.268,2.268,0,0,1,.453-1.359,3,3,0,0,1,1.281-.98A4.669,4.669,0,0,1,19.3-8.609a3.689,3.689,0,0,1,2.48.785A2.747,2.747,0,0,1,22.7-5.617v3.664a4.041,4.041,0,0,0,.336,1.82V0ZM18.891-1.57a1.945,1.945,0,0,0,.922-.223,1.462,1.462,0,0,0,.625-.6V-3.844h-.844q-1.7,0-1.8,1.172l-.008.133a.9.9,0,0,0,.3.7A1.153,1.153,0,0,0,18.891-1.57ZM32.055-4.148A5.119,5.119,0,0,1,31.188-.98,2.872,2.872,0,0,1,28.766.156,2.639,2.639,0,0,1,26.57-.9l-.1.9H24.438V-12H26.7v4.3a2.571,2.571,0,0,1,2.055-.914,2.9,2.9,0,0,1,2.426,1.137,5.126,5.126,0,0,1,.879,3.2ZM29.8-4.312a3.363,3.363,0,0,0-.406-1.871,1.374,1.374,0,0,0-1.211-.59,1.489,1.489,0,0,0-1.484.883v3.336a1.509,1.509,0,0,0,1.5.891,1.394,1.394,0,0,0,1.438-1.078A5.562,5.562,0,0,0,29.8-4.312ZM38.344,0a2.507,2.507,0,0,1-.227-.758,2.732,2.732,0,0,1-2.133.914,3,3,0,0,1-2.059-.719,2.312,2.312,0,0,1-.816-1.812,2.389,2.389,0,0,1,1-2.062,4.915,4.915,0,0,1,2.879-.727h1.039v-.484a1.393,1.393,0,0,0-.3-.937,1.183,1.183,0,0,0-.949-.352,1.345,1.345,0,0,0-.895.273.929.929,0,0,0-.324.75H33.3a2.268,2.268,0,0,1,.453-1.359,3,3,0,0,1,1.281-.98,4.669,4.669,0,0,1,1.859-.355,3.689,3.689,0,0,1,2.48.785,2.747,2.747,0,0,1,.918,2.207v3.664a4.041,4.041,0,0,0,.336,1.82V0ZM36.477-1.57a1.945,1.945,0,0,0,.922-.223,1.462,1.462,0,0,0,.625-.6V-3.844H37.18q-1.7,0-1.8,1.172l-.008.133a.9.9,0,0,0,.3.7A1.153,1.153,0,0,0,36.477-1.57Zm7.938-6.883V.461a3.024,3.024,0,0,1-.742,2.176,2.821,2.821,0,0,1-2.141.777,4.591,4.591,0,0,1-1.117-.133V1.492a4.238,4.238,0,0,0,.711.07q1.023,0,1.023-1.086v-8.93Zm-2.445-2.187a1.112,1.112,0,0,1,.34-.836,1.277,1.277,0,0,1,.926-.328,1.277,1.277,0,0,1,.926.328,1.112,1.112,0,0,1,.34.836,1.108,1.108,0,0,1-.348.844,1.283,1.283,0,0,1-.918.328,1.283,1.283,0,0,1-.918-.328A1.108,1.108,0,0,1,41.969-10.641ZM45.828-4.3a5.013,5.013,0,0,1,.484-2.242A3.546,3.546,0,0,1,47.707-8.07a4.069,4.069,0,0,1,2.113-.539,3.849,3.849,0,0,1,2.793,1.047A4.2,4.2,0,0,1,53.82-4.719l.016.578A4.418,4.418,0,0,1,52.75-1.02,3.775,3.775,0,0,1,49.836.156a3.793,3.793,0,0,1-2.918-1.172A4.5,4.5,0,0,1,45.828-4.2Zm2.258.16A3.16,3.16,0,0,0,48.539-2.3a1.5,1.5,0,0,0,1.3.638,1.5,1.5,0,0,0,1.281-.63,3.457,3.457,0,0,0,.461-2.015,3.128,3.128,0,0,0-.461-1.831,1.5,1.5,0,0,0-1.3-.649,1.474,1.474,0,0,0-1.281.646A3.516,3.516,0,0,0,48.086-4.144ZM63.1.156A4.15,4.15,0,0,1,60.074-.984a4.054,4.054,0,0,1-1.168-3.039v-.219A5.106,5.106,0,0,1,59.4-6.52a3.612,3.612,0,0,1,1.395-1.547,3.914,3.914,0,0,1,2.059-.543,3.508,3.508,0,0,1,2.73,1.094,4.444,4.444,0,0,1,1,3.1v.922H61.2a2.1,2.1,0,0,0,.66,1.328,2,2,0,0,0,1.395.5,2.437,2.437,0,0,0,2.039-.945L66.4-1.367A3.389,3.389,0,0,1,65.023-.246,4.511,4.511,0,0,1,63.1.156Zm-.258-6.945a1.411,1.411,0,0,0-1.09.455,2.357,2.357,0,0,0-.535,1.3h3.141v-.181a1.681,1.681,0,0,0-.406-1.165A1.456,1.456,0,0,0,62.844-6.789Zm7.094-1.664.07.977a2.951,2.951,0,0,1,2.43-1.133,2.453,2.453,0,0,1,2,.789,3.682,3.682,0,0,1,.672,2.359V0H72.852V-5.406a1.465,1.465,0,0,0-.312-1.043A1.4,1.4,0,0,0,71.5-6.773a1.553,1.553,0,0,0-1.43.813V0H67.813V-8.453ZM84.7.156A4.15,4.15,0,0,1,81.668-.984,4.054,4.054,0,0,1,80.5-4.023v-.219a5.106,5.106,0,0,1,.492-2.277,3.612,3.612,0,0,1,1.395-1.547,3.914,3.914,0,0,1,2.059-.543,3.508,3.508,0,0,1,2.73,1.094,4.444,4.444,0,0,1,1,3.1v.922H82.789a2.1,2.1,0,0,0,.66,1.328,2,2,0,0,0,1.395.5,2.437,2.437,0,0,0,2.039-.945l1.109,1.242A3.389,3.389,0,0,1,86.617-.246,4.511,4.511,0,0,1,84.7.156Zm-.258-6.945a1.411,1.411,0,0,0-1.09.455,2.357,2.357,0,0,0-.535,1.3h3.141v-.181a1.681,1.681,0,0,0-.406-1.165A1.456,1.456,0,0,0,84.438-6.789ZM89.1-4.3a5.053,5.053,0,0,1,.887-3.148,2.9,2.9,0,0,1,2.434-1.156A2.6,2.6,0,0,1,94.586-7.57l.148-.883h1.984V3.25H94.453V-.727a2.6,2.6,0,0,1-2.047.883A2.878,2.878,0,0,1,90-1.016,5.3,5.3,0,0,1,89.1-4.3Zm2.258.16A3.315,3.315,0,0,0,91.785-2.3a1.363,1.363,0,0,0,1.2.634,1.518,1.518,0,0,0,1.469-.829v-3.5A1.506,1.506,0,0,0,93-6.789a1.38,1.38,0,0,0-1.211.634A3.661,3.661,0,0,0,91.359-4.144Zm12.2,3.285A2.831,2.831,0,0,1,101.242.156a2.67,2.67,0,0,1-2.074-.781,3.335,3.335,0,0,1-.73-2.289V-8.453H100.7v5.467q0,1.322,1.2,1.322a1.63,1.63,0,0,0,1.578-.8V-8.453h2.266V0h-2.125ZM109.828,0h-2.266V-8.453h2.266Zm-2.4-10.641a1.112,1.112,0,0,1,.34-.836,1.277,1.277,0,0,1,.926-.328,1.28,1.28,0,0,1,.922.328,1.105,1.105,0,0,1,.344.836,1.108,1.108,0,0,1-.348.844,1.283,1.283,0,0,1-.918.328,1.283,1.283,0,0,1-.918-.328A1.108,1.108,0,0,1,107.43-10.641ZM119.3-4.148a5.07,5.07,0,0,1-.887,3.129A2.843,2.843,0,0,1,116.016.156a2.633,2.633,0,0,1-2.07-.891V3.25h-2.258v-11.7h2.094l.078.828A2.654,2.654,0,0,1,116-8.609a2.862,2.862,0,0,1,2.43,1.156,5.207,5.207,0,0,1,.867,3.188Zm-2.258-.164a3.327,3.327,0,0,0-.418-1.82,1.361,1.361,0,0,0-1.215-.641,1.478,1.478,0,0,0-1.461.813V-2.5a1.5,1.5,0,0,0,1.477.836Q117.039-1.664,117.039-4.312Zm3.3.008a5.013,5.013,0,0,1,.484-2.242,3.546,3.546,0,0,1,1.395-1.523,4.069,4.069,0,0,1,2.113-.539,3.849,3.849,0,0,1,2.793,1.047,4.2,4.2,0,0,1,1.207,2.844l.016.578a4.418,4.418,0,0,1-1.086,3.121A3.775,3.775,0,0,1,124.352.156a3.793,3.793,0,0,1-2.918-1.172,4.5,4.5,0,0,1-1.09-3.187Zm2.258.16a3.16,3.16,0,0,0,.453,1.843,1.5,1.5,0,0,0,1.3.638,1.5,1.5,0,0,0,1.281-.63,3.457,3.457,0,0,0,.461-2.015,3.128,3.128,0,0,0-.461-1.831,1.5,1.5,0,0,0-1.3-.649,1.474,1.474,0,0,0-1.281.646A3.516,3.516,0,0,0,122.6-4.144Z" transform="translate(976.409 808.336)" fill="#fff"/>
    <g id="Grupo_112181" data-name="Grupo 112181" transform="translate(714.921 771.77)">
      <g id="Elipse_5383" data-name="Elipse 5383" transform="translate(-0.001 0.001)" fill="#3d46c2" stroke="#3d46c2" stroke-width="2">
        <ellipse cx="83.452" cy="30.593" rx="83.452" ry="30.593" stroke="none"/>
        <ellipse cx="83.452" cy="30.593" rx="82.452" ry="29.593" fill="none"/>
      </g>
    </g>
    <path id="Trazado_162163" data-name="Trazado 162163" d="M7.859-4.93h-4.5v3.047H8.641V0H1.016V-11.375H8.625v1.9H3.359v2.711h4.5Zm6.586,2.594a.727.727,0,0,0-.41-.652,4.659,4.659,0,0,0-1.316-.426Q9.7-4.047,9.7-5.977a2.323,2.323,0,0,1,.934-1.879,3.766,3.766,0,0,1,2.441-.754,4.053,4.053,0,0,1,2.574.758,2.388,2.388,0,0,1,.965,1.969H14.359a1.092,1.092,0,0,0-.312-.8A1.322,1.322,0,0,0,13.07-7a1.351,1.351,0,0,0-.883.258.814.814,0,0,0-.312.656.7.7,0,0,0,.355.605,3.657,3.657,0,0,0,1.2.4,9.8,9.8,0,0,1,1.422.379A2.336,2.336,0,0,1,16.641-2.43a2.2,2.2,0,0,1-.992,1.871,4.28,4.28,0,0,1-2.562.715A4.47,4.47,0,0,1,11.2-.223,3.166,3.166,0,0,1,9.906-1.262a2.414,2.414,0,0,1-.469-1.426h2.141a1.179,1.179,0,0,0,.445.922,1.766,1.766,0,0,0,1.109.32,1.635,1.635,0,0,0,.98-.246A.766.766,0,0,0,14.445-2.336Zm6.352-8.2v2.078h1.445V-6.8H20.8v4.219a1.007,1.007,0,0,0,.18.672.9.9,0,0,0,.688.2,3.6,3.6,0,0,0,.664-.055V-.047a4.648,4.648,0,0,1-1.367.2,2.156,2.156,0,0,1-2.422-2.4V-6.8H17.3V-8.453h1.234v-2.078Zm7.453,4.2a6.134,6.134,0,0,0-.812-.062,1.654,1.654,0,0,0-1.68.867V0H23.5V-8.453h2.133L25.7-7.445a2.092,2.092,0,0,1,1.883-1.164,2.366,2.366,0,0,1,.7.1ZM34,0a2.507,2.507,0,0,1-.227-.758,2.732,2.732,0,0,1-2.133.914,3,3,0,0,1-2.059-.719,2.312,2.312,0,0,1-.816-1.812,2.389,2.389,0,0,1,1-2.062,4.915,4.915,0,0,1,2.879-.727H33.68v-.484a1.393,1.393,0,0,0-.3-.937,1.183,1.183,0,0,0-.949-.352,1.345,1.345,0,0,0-.895.273.929.929,0,0,0-.324.75H28.953a2.268,2.268,0,0,1,.453-1.359,3,3,0,0,1,1.281-.98,4.669,4.669,0,0,1,1.859-.355,3.689,3.689,0,0,1,2.48.785,2.747,2.747,0,0,1,.918,2.207v3.664a4.041,4.041,0,0,0,.336,1.82V0ZM32.133-1.57a1.945,1.945,0,0,0,.922-.223,1.462,1.462,0,0,0,.625-.6V-3.844h-.844q-1.7,0-1.8,1.172l-.008.133a.9.9,0,0,0,.3.7A1.153,1.153,0,0,0,32.133-1.57Zm8.25-8.961v2.078h1.445V-6.8H40.383v4.219a1.007,1.007,0,0,0,.18.672.9.9,0,0,0,.688.2,3.6,3.6,0,0,0,.664-.055V-.047a4.648,4.648,0,0,1-1.367.2,2.156,2.156,0,0,1-2.422-2.4V-6.8H36.891V-8.453h1.234v-2.078ZM46.977.156A4.15,4.15,0,0,1,43.949-.984a4.054,4.054,0,0,1-1.168-3.039v-.219a5.106,5.106,0,0,1,.492-2.277,3.612,3.612,0,0,1,1.395-1.547,3.914,3.914,0,0,1,2.059-.543,3.508,3.508,0,0,1,2.73,1.094,4.444,4.444,0,0,1,1,3.1v.922H45.07a2.1,2.1,0,0,0,.66,1.328,2,2,0,0,0,1.395.5,2.437,2.437,0,0,0,2.039-.945l1.109,1.242A3.389,3.389,0,0,1,48.9-.246,4.511,4.511,0,0,1,46.977.156Zm-.258-6.945a1.411,1.411,0,0,0-1.09.455,2.357,2.357,0,0,0-.535,1.3h3.141v-.181a1.681,1.681,0,0,0-.406-1.165A1.456,1.456,0,0,0,46.719-6.789Zm4.688,2.5a4.954,4.954,0,0,1,.926-3.133,3,3,0,0,1,2.5-1.187,2.631,2.631,0,0,1,2.164.953l.094-.8h2.047V-.281a3.613,3.613,0,0,1-.5,1.93A3.236,3.236,0,0,1,57.211,2.9a4.985,4.985,0,0,1-2.141.43,4.635,4.635,0,0,1-1.812-.371A3.217,3.217,0,0,1,51.922,2l1-1.375a2.645,2.645,0,0,0,2.047.945,1.936,1.936,0,0,0,1.4-.48,1.8,1.8,0,0,0,.5-1.363V-.727a2.612,2.612,0,0,1-2.055.883,2.992,2.992,0,0,1-2.465-1.191,4.953,4.953,0,0,1-.941-3.16Zm2.258.168a3.085,3.085,0,0,0,.461,1.8,1.466,1.466,0,0,0,1.266.653,1.568,1.568,0,0,0,1.477-.775V-6a1.564,1.564,0,0,0-1.461-.775,1.476,1.476,0,0,0-1.277.665A3.477,3.477,0,0,0,53.664-4.121ZM63.25,0H60.984V-8.453H63.25Zm-2.4-10.641a1.112,1.112,0,0,1,.34-.836,1.277,1.277,0,0,1,.926-.328,1.28,1.28,0,0,1,.922.328,1.105,1.105,0,0,1,.344.836,1.108,1.108,0,0,1-.348.844,1.283,1.283,0,0,1-.918.328A1.283,1.283,0,0,1,61.2-9.8,1.108,1.108,0,0,1,60.852-10.641ZM70.008,0a2.507,2.507,0,0,1-.227-.758,2.732,2.732,0,0,1-2.133.914A3,3,0,0,1,65.59-.562a2.312,2.312,0,0,1-.816-1.812,2.389,2.389,0,0,1,1-2.062,4.915,4.915,0,0,1,2.879-.727h1.039v-.484a1.393,1.393,0,0,0-.3-.937,1.183,1.183,0,0,0-.949-.352,1.345,1.345,0,0,0-.895.273.929.929,0,0,0-.324.75H64.961a2.268,2.268,0,0,1,.453-1.359,3,3,0,0,1,1.281-.98,4.669,4.669,0,0,1,1.859-.355,3.689,3.689,0,0,1,2.48.785,2.747,2.747,0,0,1,.918,2.207v3.664a4.041,4.041,0,0,0,.336,1.82V0ZM68.141-1.57a1.945,1.945,0,0,0,.922-.223,1.462,1.462,0,0,0,.625-.6V-3.844h-.844q-1.7,0-1.8,1.172l-.008.133a.9.9,0,0,0,.3.7A1.153,1.153,0,0,0,68.141-1.57Zm10.125-.766a.727.727,0,0,0-.41-.652,4.659,4.659,0,0,0-1.316-.426q-3.016-.633-3.016-2.562a2.323,2.323,0,0,1,.934-1.879A3.766,3.766,0,0,1,76.9-8.609a4.053,4.053,0,0,1,2.574.758,2.388,2.388,0,0,1,.965,1.969H78.18a1.092,1.092,0,0,0-.312-.8A1.322,1.322,0,0,0,76.891-7a1.351,1.351,0,0,0-.883.258.814.814,0,0,0-.312.656.7.7,0,0,0,.355.605,3.657,3.657,0,0,0,1.2.4,9.8,9.8,0,0,1,1.422.379A2.336,2.336,0,0,1,80.461-2.43a2.2,2.2,0,0,1-.992,1.871,4.28,4.28,0,0,1-2.562.715A4.47,4.47,0,0,1,75.02-.223a3.166,3.166,0,0,1-1.293-1.039,2.414,2.414,0,0,1-.469-1.426H75.4a1.179,1.179,0,0,0,.445.922,1.766,1.766,0,0,0,1.109.32,1.635,1.635,0,0,0,.98-.246A.766.766,0,0,0,78.266-2.336Z" transform="translate(757.579 806.963)" fill="#fff"/>
    <rect id="Rectángulo_40700" data-name="Rectángulo 40700" width="202.041" height="36" rx="5" transform="translate(699.334 711.001)" fill="none" stroke="#f85316" stroke-miterlimit="10" stroke-width="2"/>
    <rect id="Rectángulo_40699" data-name="Rectángulo 40699" width="202.041" height="36" rx="5" transform="translate(699.333 712)" fill="#ff642b"/>
    <path id="Trazado_162161" data-name="Trazado 162161" d="M10.016-1.437A4.068,4.068,0,0,1,8.227-.262,7.492,7.492,0,0,1,5.664.156a5.076,5.076,0,0,1-2.59-.645A4.3,4.3,0,0,1,1.355-2.359,6.585,6.585,0,0,1,.734-5.242v-.773a6.994,6.994,0,0,1,.574-2.949,4.248,4.248,0,0,1,1.656-1.906,4.771,4.771,0,0,1,2.535-.66,4.751,4.751,0,0,1,3.164.965,4.123,4.123,0,0,1,1.352,2.809H7.734a2.268,2.268,0,0,0-.691-1.43A2.208,2.208,0,0,0,5.57-9.641a2.078,2.078,0,0,0-1.82.9A4.724,4.724,0,0,0,3.117-6.07v.727a4.5,4.5,0,0,0,.68,2.7,2.327,2.327,0,0,0,1.992.914,2.6,2.6,0,0,0,1.883-.562V-4.25H5.539V-5.977h4.477ZM15.656.156A4.15,4.15,0,0,1,12.629-.984a4.054,4.054,0,0,1-1.168-3.039v-.219a5.106,5.106,0,0,1,.492-2.277,3.612,3.612,0,0,1,1.395-1.547,3.914,3.914,0,0,1,2.059-.543,3.508,3.508,0,0,1,2.73,1.094,4.444,4.444,0,0,1,1,3.1v.922H13.75a2.1,2.1,0,0,0,.66,1.328,2,2,0,0,0,1.395.5,2.437,2.437,0,0,0,2.039-.945l1.109,1.242A3.389,3.389,0,0,1,17.578-.246,4.511,4.511,0,0,1,15.656.156ZM15.4-6.789a1.411,1.411,0,0,0-1.09.455,2.357,2.357,0,0,0-.535,1.3h3.141v-.181a1.681,1.681,0,0,0-.406-1.165A1.456,1.456,0,0,0,15.4-6.789Zm9.594,4.453a.727.727,0,0,0-.41-.652,4.659,4.659,0,0,0-1.316-.426Q20.25-4.047,20.25-5.977a2.323,2.323,0,0,1,.934-1.879,3.766,3.766,0,0,1,2.441-.754,4.053,4.053,0,0,1,2.574.758,2.388,2.388,0,0,1,.965,1.969H24.906a1.092,1.092,0,0,0-.312-.8A1.322,1.322,0,0,0,23.617-7a1.351,1.351,0,0,0-.883.258.814.814,0,0,0-.312.656.7.7,0,0,0,.355.605,3.657,3.657,0,0,0,1.2.4A9.8,9.8,0,0,1,25.4-4.7,2.336,2.336,0,0,1,27.188-2.43,2.2,2.2,0,0,1,26.2-.559a4.28,4.28,0,0,1-2.562.715,4.47,4.47,0,0,1-1.887-.379,3.166,3.166,0,0,1-1.293-1.039,2.414,2.414,0,0,1-.469-1.426h2.141a1.179,1.179,0,0,0,.445.922,1.766,1.766,0,0,0,1.109.32,1.635,1.635,0,0,0,.98-.246A.766.766,0,0,0,24.992-2.336Zm6.352-8.2v2.078h1.445V-6.8H31.344v4.219a1.007,1.007,0,0,0,.18.672.9.9,0,0,0,.688.2,3.6,3.6,0,0,0,.664-.055V-.047a4.648,4.648,0,0,1-1.367.2,2.156,2.156,0,0,1-2.422-2.4V-6.8H27.852V-8.453h1.234v-2.078ZM36.43,0H34.164V-8.453H36.43Zm-2.4-10.641a1.112,1.112,0,0,1,.34-.836A1.277,1.277,0,0,1,35.3-11.8a1.28,1.28,0,0,1,.922.328,1.105,1.105,0,0,1,.344.836,1.108,1.108,0,0,1-.348.844,1.283,1.283,0,0,1-.918.328,1.283,1.283,0,0,1-.918-.328A1.108,1.108,0,0,1,34.031-10.641ZM37.938-4.3a5.013,5.013,0,0,1,.484-2.242A3.546,3.546,0,0,1,39.816-8.07a4.069,4.069,0,0,1,2.113-.539,3.849,3.849,0,0,1,2.793,1.047A4.2,4.2,0,0,1,45.93-4.719l.016.578A4.418,4.418,0,0,1,44.859-1.02,3.775,3.775,0,0,1,41.945.156a3.793,3.793,0,0,1-2.918-1.172A4.5,4.5,0,0,1,37.938-4.2Zm2.258.16A3.16,3.16,0,0,0,40.648-2.3a1.5,1.5,0,0,0,1.3.638,1.5,1.5,0,0,0,1.281-.63,3.457,3.457,0,0,0,.461-2.015,3.128,3.128,0,0,0-.461-1.831,1.5,1.5,0,0,0-1.3-.649,1.474,1.474,0,0,0-1.281.646A3.516,3.516,0,0,0,40.2-4.144ZM42.375-12h2.461L42.672-9.578H40.836Zm7.039,3.547.07.977a2.951,2.951,0,0,1,2.43-1.133,2.453,2.453,0,0,1,2,.789,3.682,3.682,0,0,1,.672,2.359V0H52.328V-5.406a1.465,1.465,0,0,0-.312-1.043,1.4,1.4,0,0,0-1.039-.324,1.553,1.553,0,0,0-1.43.813V0H47.289V-8.453ZM59.93-4.289a5.094,5.094,0,0,1,.887-3.148,2.877,2.877,0,0,1,2.426-1.172,2.589,2.589,0,0,1,2.039.922V-12h2.266V0H65.508L65.4-.9A2.657,2.657,0,0,1,63.227.156,2.869,2.869,0,0,1,60.832-1.02,5.258,5.258,0,0,1,59.93-4.289Zm2.258.168A3.337,3.337,0,0,0,62.6-2.3a1.349,1.349,0,0,0,1.2.634,1.511,1.511,0,0,0,1.477-.884V-5.889a1.489,1.489,0,0,0-1.461-.884Q62.187-6.773,62.188-4.121Zm11,4.277A4.15,4.15,0,0,1,70.16-.984a4.054,4.054,0,0,1-1.168-3.039v-.219a5.106,5.106,0,0,1,.492-2.277,3.612,3.612,0,0,1,1.395-1.547,3.914,3.914,0,0,1,2.059-.543,3.508,3.508,0,0,1,2.73,1.094,4.444,4.444,0,0,1,1,3.1v.922H71.281a2.1,2.1,0,0,0,.66,1.328,2,2,0,0,0,1.395.5,2.437,2.437,0,0,0,2.039-.945l1.109,1.242A3.389,3.389,0,0,1,75.109-.246,4.511,4.511,0,0,1,73.188.156ZM72.93-6.789a1.411,1.411,0,0,0-1.09.455,2.357,2.357,0,0,0-.535,1.3h3.141v-.181a1.681,1.681,0,0,0-.406-1.165A1.456,1.456,0,0,0,72.93-6.789ZM84.313,0H82.047V-12h2.266ZM91.07,0a2.507,2.507,0,0,1-.227-.758,2.732,2.732,0,0,1-2.133.914,3,3,0,0,1-2.059-.719,2.312,2.312,0,0,1-.816-1.812,2.389,2.389,0,0,1,1-2.062,4.915,4.915,0,0,1,2.879-.727H90.75v-.484a1.393,1.393,0,0,0-.3-.937,1.183,1.183,0,0,0-.949-.352,1.345,1.345,0,0,0-.895.273.929.929,0,0,0-.324.75H86.023a2.268,2.268,0,0,1,.453-1.359,3,3,0,0,1,1.281-.98,4.669,4.669,0,0,1,1.859-.355,3.689,3.689,0,0,1,2.48.785,2.747,2.747,0,0,1,.918,2.207v3.664a4.041,4.041,0,0,0,.336,1.82V0ZM89.2-1.57a1.945,1.945,0,0,0,.922-.223,1.462,1.462,0,0,0,.625-.6V-3.844h-.844q-1.7,0-1.8,1.172l-.008.133a.9.9,0,0,0,.3.7A1.153,1.153,0,0,0,89.2-1.57Zm13.047-.094a1.481,1.481,0,0,0,1.016-.344,1.2,1.2,0,0,0,.406-.914h2.117a2.9,2.9,0,0,1-.469,1.574,3.093,3.093,0,0,1-1.262,1.109,3.949,3.949,0,0,1-1.77.395A3.67,3.67,0,0,1,99.43-1,4.56,4.56,0,0,1,98.383-4.18v-.148a4.508,4.508,0,0,1,1.039-3.117,3.627,3.627,0,0,1,2.852-1.164,3.555,3.555,0,0,1,2.543.9,3.2,3.2,0,0,1,.973,2.4h-2.117a1.551,1.551,0,0,0-.406-1.072,1.354,1.354,0,0,0-1.031-.412,1.36,1.36,0,0,0-1.191.575,3.333,3.333,0,0,0-.4,1.866v.235a3.375,3.375,0,0,0,.4,1.878A1.377,1.377,0,0,0,102.25-1.664ZM111.977,0a2.507,2.507,0,0,1-.227-.758,2.732,2.732,0,0,1-2.133.914,3,3,0,0,1-2.059-.719,2.312,2.312,0,0,1-.816-1.812,2.389,2.389,0,0,1,1-2.062,4.915,4.915,0,0,1,2.879-.727h1.039v-.484a1.393,1.393,0,0,0-.3-.937,1.183,1.183,0,0,0-.949-.352,1.345,1.345,0,0,0-.895.273.929.929,0,0,0-.324.75H106.93a2.268,2.268,0,0,1,.453-1.359,3,3,0,0,1,1.281-.98,4.669,4.669,0,0,1,1.859-.355,3.689,3.689,0,0,1,2.48.785,2.747,2.747,0,0,1,.918,2.207v3.664a4.041,4.041,0,0,0,.336,1.82V0Zm-1.867-1.57a1.945,1.945,0,0,0,.922-.223,1.462,1.462,0,0,0,.625-.6V-3.844h-.844q-1.7,0-1.8,1.172L109-2.539a.9.9,0,0,0,.3.7A1.153,1.153,0,0,0,110.109-1.57ZM118.039,0h-2.266V-12h2.266Zm4.242,0h-2.266V-8.453h2.266Zm-2.4-10.641a1.112,1.112,0,0,1,.34-.836,1.277,1.277,0,0,1,.926-.328,1.28,1.28,0,0,1,.922.328,1.105,1.105,0,0,1,.344.836,1.108,1.108,0,0,1-.348.844,1.283,1.283,0,0,1-.918.328,1.283,1.283,0,0,1-.918-.328A1.108,1.108,0,0,1,119.883-10.641Zm3.906,6.352a5.094,5.094,0,0,1,.887-3.148A2.877,2.877,0,0,1,127.1-8.609a2.589,2.589,0,0,1,2.039.922V-12h2.266V0h-2.039l-.109-.9A2.657,2.657,0,0,1,127.086.156a2.869,2.869,0,0,1-2.395-1.176A5.258,5.258,0,0,1,123.789-4.289Zm2.258.168a3.337,3.337,0,0,0,.414,1.823,1.349,1.349,0,0,0,1.2.634,1.511,1.511,0,0,0,1.477-.884V-5.889a1.489,1.489,0,0,0-1.461-.884Q126.047-6.773,126.047-4.121ZM138.055,0a2.507,2.507,0,0,1-.227-.758A2.732,2.732,0,0,1,135.7.156a3,3,0,0,1-2.059-.719,2.312,2.312,0,0,1-.816-1.812,2.389,2.389,0,0,1,1-2.062,4.915,4.915,0,0,1,2.879-.727h1.039v-.484a1.393,1.393,0,0,0-.3-.937,1.183,1.183,0,0,0-.949-.352,1.345,1.345,0,0,0-.895.273.929.929,0,0,0-.324.75h-2.258a2.268,2.268,0,0,1,.453-1.359,3,3,0,0,1,1.281-.98,4.669,4.669,0,0,1,1.859-.355,3.689,3.689,0,0,1,2.48.785A2.747,2.747,0,0,1,140-5.617v3.664a4.041,4.041,0,0,0,.336,1.82V0Zm-1.867-1.57a1.945,1.945,0,0,0,.922-.223,1.462,1.462,0,0,0,.625-.6V-3.844h-.844q-1.7,0-1.8,1.172l-.008.133a.9.9,0,0,0,.3.7A1.153,1.153,0,0,0,136.188-1.57Zm5.2-2.719a5.094,5.094,0,0,1,.887-3.148A2.877,2.877,0,0,1,144.7-8.609a2.589,2.589,0,0,1,2.039.922V-12H149V0h-2.039l-.109-.9A2.657,2.657,0,0,1,144.68.156a2.869,2.869,0,0,1-2.395-1.176A5.258,5.258,0,0,1,141.383-4.289Zm2.258.168a3.337,3.337,0,0,0,.414,1.823,1.349,1.349,0,0,0,1.2.634,1.511,1.511,0,0,0,1.477-.884V-5.889a1.489,1.489,0,0,0-1.461-.884Q143.641-6.773,143.641-4.121Z" transform="translate(725.333 736)" fill="#fff"/>
    <line id="Línea_249" data-name="Línea 249" x1="237.101" y1="50.505" transform="translate(563.833 432.5)" fill="none" stroke="#3d46c2" stroke-width="2"/>
    <line id="Línea_250" data-name="Línea 250" y1="50.505" x2="247.898" transform="translate(800.935 432.5)" fill="none" stroke="#3d46c2" stroke-width="2"/>
    <g id="Grupo_112174" data-name="Grupo 112174" transform="translate(494.999 373.041)">
      <g id="Elipse_5381" data-name="Elipse 5381" transform="translate(0 0.001)" fill="#75b62f" stroke="#f85316" stroke-width="2" opacity="0.35">
        <ellipse cx="69.45" cy="29.973" rx="69.45" ry="29.973" stroke="none"/>
        <ellipse cx="69.45" cy="29.973" rx="68.45" ry="28.973" fill="none"/>
      </g>
      <g id="Elipse_5383-2" data-name="Elipse 5383" transform="translate(0 0.001)" fill="none" stroke="#75b62f" stroke-width="2">
        <ellipse cx="69.45" cy="29.973" rx="69.45" ry="29.973" stroke="none"/>
        <ellipse cx="69.45" cy="29.973" rx="68.45" ry="28.973" fill="none"/>
      </g>
    </g>
    <g id="Grupo_112187" data-name="Grupo 112187" transform="translate(730.515 372.999)">
      <g id="Elipse_5381-2" data-name="Elipse 5381" transform="translate(0 0.001)" fill="#75b62f" stroke="#f85316" stroke-width="2" opacity="0.35">
        <ellipse cx="69.45" cy="29.973" rx="69.45" ry="29.973" stroke="none"/>
        <ellipse cx="69.45" cy="29.973" rx="68.45" ry="28.973" fill="none"/>
      </g>
      <g id="Elipse_5383-3" data-name="Elipse 5383" transform="translate(0 0.001)" fill="none" stroke="#75b62f" stroke-width="2">
        <ellipse cx="69.45" cy="29.973" rx="69.45" ry="29.973" stroke="none"/>
        <ellipse cx="69.45" cy="29.973" rx="68.45" ry="28.973" fill="none"/>
      </g>
    </g>
    <g id="Grupo_112188" data-name="Grupo 112188" transform="translate(966.1 373.041)">
      <g id="Elipse_5381-3" data-name="Elipse 5381" transform="translate(0 0.001)" fill="#75b62f" stroke="#f85316" stroke-width="2" opacity="0.35">
        <ellipse cx="69.45" cy="29.973" rx="69.45" ry="29.973" stroke="none"/>
        <ellipse cx="69.45" cy="29.973" rx="68.45" ry="28.973" fill="none"/>
      </g>
      <g id="Elipse_5383-4" data-name="Elipse 5383" transform="translate(0 0.001)" fill="none" stroke="#75b62f" stroke-width="2">
        <ellipse cx="69.45" cy="29.973" rx="69.45" ry="29.973" stroke="none"/>
        <ellipse cx="69.45" cy="29.973" rx="68.45" ry="28.973" fill="none"/>
      </g>
    </g>
    <path id="Trazado_162154" data-name="Trazado 162154" d="M3.545,0H.981V-10.664H3.545Zm3.94-7.925.081.93A2.687,2.687,0,0,1,9.829-8.071a2.261,2.261,0,0,1,1.849.74A3.522,3.522,0,0,1,12.312-5.1V0H9.836V-5a1.337,1.337,0,0,0-.242-.883,1.118,1.118,0,0,0-.879-.282A1.177,1.177,0,0,0,7.639-5.6V0H5.171V-7.925Zm8.459,0,.081.93a2.687,2.687,0,0,1,2.263-1.077,2.261,2.261,0,0,1,1.849.74A3.522,3.522,0,0,1,20.771-5.1V0H18.3V-5a1.337,1.337,0,0,0-.242-.883,1.118,1.118,0,0,0-.879-.282A1.177,1.177,0,0,0,16.1-5.6V0H13.63V-7.925Zm5.881,3.889a4.677,4.677,0,0,1,.461-2.113,3.3,3.3,0,0,1,1.326-1.425,3.993,3.993,0,0,1,2.029-.5,3.644,3.644,0,0,1,2.805,1.1,4.23,4.23,0,0,1,1.025,3v.088A4.1,4.1,0,0,1,28.444-.941,3.654,3.654,0,0,1,25.657.146,3.7,3.7,0,0,1,22.939-.868a3.968,3.968,0,0,1-1.106-2.75Zm2.468.154a2.949,2.949,0,0,0,.344,1.611,1.147,1.147,0,0,0,1.018.513q1.318,0,1.348-2.029v-.249q0-2.131-1.362-2.131-1.238,0-1.34,1.838Zm9.316.945,1.252-4.988h2.6L34.878,0h-2.52L29.773-7.925H32.38ZM42.554,0a2.787,2.787,0,0,1-.234-.71,2.3,2.3,0,0,1-1.9.857,2.812,2.812,0,0,1-1.9-.677,2.156,2.156,0,0,1-.784-1.7,2.216,2.216,0,0,1,.952-1.948,4.851,4.851,0,0,1,2.769-.659h.762v-.42q0-1.1-.945-1.1a.772.772,0,0,0-.879.868H37.917A2.213,2.213,0,0,1,38.9-7.354a4.109,4.109,0,0,1,2.494-.717,3.6,3.6,0,0,1,2.4.74,2.572,2.572,0,0,1,.9,2.029v3.508a3.593,3.593,0,0,0,.337,1.67V0ZM41.008-1.611a1.377,1.377,0,0,0,.765-.2,1.239,1.239,0,0,0,.436-.447V-3.523h-.718q-1.289,0-1.289,1.157a.707.707,0,0,0,.227.546A.822.822,0,0,0,41.008-1.611ZM49.4-1.758a1.1,1.1,0,0,0,.806-.282,1.034,1.034,0,0,0,.278-.787H52.8a2.74,2.74,0,0,1-.934,2.139A3.474,3.474,0,0,1,49.46.146,3.517,3.517,0,0,1,46.736-.937a4.271,4.271,0,0,1-1-3v-.1a4.827,4.827,0,0,1,.443-2.12,3.226,3.226,0,0,1,1.278-1.414,3.811,3.811,0,0,1,1.978-.494,3.43,3.43,0,0,1,2.454.857A3.039,3.039,0,0,1,52.8-4.893H50.486a1.355,1.355,0,0,0-.3-.945,1.037,1.037,0,0,0-.806-.33q-.959,0-1.121,1.223a8.631,8.631,0,0,0-.051,1.069,3.39,3.39,0,0,0,.286,1.655A.989.989,0,0,0,49.4-1.758ZM56.448,0H53.972V-7.925h2.476ZM53.826-9.968a1.1,1.1,0,0,1,.381-.864,1.437,1.437,0,0,1,.989-.337,1.437,1.437,0,0,1,.989.337,1.1,1.1,0,0,1,.381.864,1.1,1.1,0,0,1-.381.864,1.437,1.437,0,0,1-.989.337,1.437,1.437,0,0,1-.989-.337A1.1,1.1,0,0,1,53.826-9.968Zm3.831,5.933a4.677,4.677,0,0,1,.461-2.113,3.3,3.3,0,0,1,1.326-1.425,3.993,3.993,0,0,1,2.029-.5,3.644,3.644,0,0,1,2.805,1.1,4.23,4.23,0,0,1,1.025,3v.088A4.1,4.1,0,0,1,64.274-.941,3.654,3.654,0,0,1,61.487.146,3.7,3.7,0,0,1,58.77-.868a3.968,3.968,0,0,1-1.106-2.75Zm2.468.154a2.949,2.949,0,0,0,.344,1.611,1.147,1.147,0,0,0,1.018.513q1.318,0,1.348-2.029v-.249q0-2.131-1.362-2.131-1.238,0-1.34,1.838Zm1.685-7.368h2.607L62.38-8.95l-2.014,0Zm6.848,3.325.081.93A2.687,2.687,0,0,1,71-8.071a2.261,2.261,0,0,1,1.849.74A3.522,3.522,0,0,1,73.484-5.1V0H71.008V-5a1.337,1.337,0,0,0-.242-.883,1.118,1.118,0,0,0-.879-.282,1.177,1.177,0,0,0-1.077.571V0H66.343V-7.925Z" transform="translate(526.999 408)" fill="#12263f"/>
    <path id="Trazado_162155" data-name="Trazado 162155" d="M9.434-3.611a3.9,3.9,0,0,1-.6,1.967A3.625,3.625,0,0,1,7.291-.322,5.248,5.248,0,0,1,5.024.146a4.188,4.188,0,0,1-3.311-1.37A5.655,5.655,0,0,1,.505-5.09v-.527a6.455,6.455,0,0,1,.546-2.743,4.134,4.134,0,0,1,1.571-1.816A4.383,4.383,0,0,1,5-10.818,4.6,4.6,0,0,1,8.115-9.8,4.037,4.037,0,0,1,9.456-6.98H6.892a1.91,1.91,0,0,0-.491-1.4A2.018,2.018,0,0,0,5-8.8a1.536,1.536,0,0,0-1.406.718A4.613,4.613,0,0,0,3.12-5.793v.754A5.1,5.1,0,0,0,3.549-2.6a1.568,1.568,0,0,0,1.476.732,1.974,1.974,0,0,0,1.355-.417,1.772,1.772,0,0,0,.5-1.326Zm5.9-2.08-.813-.059a1.46,1.46,0,0,0-1.494.732V0H10.554V-7.925h2.314l.081,1.018a1.911,1.911,0,0,1,1.736-1.165,2.407,2.407,0,0,1,.688.088ZM19.915.146A4.074,4.074,0,0,1,16.963-.941a3.756,3.756,0,0,1-1.128-2.831v-.205a4.867,4.867,0,0,1,.45-2.146A3.3,3.3,0,0,1,17.6-7.562a3.969,3.969,0,0,1,2.051-.509,3.43,3.43,0,0,1,2.637,1.036,4.073,4.073,0,0,1,.967,2.889v.959H18.347a1.779,1.779,0,0,0,.579,1.047,1.722,1.722,0,0,0,1.157.381,2.218,2.218,0,0,0,1.831-.82l1.128,1.333A3.153,3.153,0,0,1,21.735-.231,4.418,4.418,0,0,1,19.915.146Zm-.278-6.313q-1.084,0-1.289,1.436h2.49v-.19a1.223,1.223,0,0,0-.3-.919A1.2,1.2,0,0,0,19.636-6.167ZM28.711,0a2.787,2.787,0,0,1-.234-.71,2.3,2.3,0,0,1-1.9.857,2.812,2.812,0,0,1-1.9-.677,2.156,2.156,0,0,1-.784-1.7,2.216,2.216,0,0,1,.952-1.948A4.851,4.851,0,0,1,27.6-4.841h.762v-.42q0-1.1-.945-1.1a.772.772,0,0,0-.879.868H24.075a2.213,2.213,0,0,1,.978-1.865,4.109,4.109,0,0,1,2.494-.717,3.6,3.6,0,0,1,2.4.74,2.572,2.572,0,0,1,.9,2.029v3.508a3.593,3.593,0,0,0,.337,1.67V0ZM27.166-1.611a1.377,1.377,0,0,0,.765-.2,1.239,1.239,0,0,0,.436-.447V-3.523h-.718q-1.289,0-1.289,1.157a.707.707,0,0,0,.227.546A.822.822,0,0,0,27.166-1.611ZM35.083-9.9v1.97h1.3v1.714h-1.3v3.625a.926.926,0,0,0,.161.623.864.864,0,0,0,.637.176,3.621,3.621,0,0,0,.615-.044V-.066A4.555,4.555,0,0,1,35.1.146a2.586,2.586,0,0,1-1.882-.6,2.462,2.462,0,0,1-.608-1.824V-6.211H31.6V-7.925h1.011V-9.9ZM39.961,0H37.485V-7.925h2.476ZM37.339-9.968a1.1,1.1,0,0,1,.381-.864,1.437,1.437,0,0,1,.989-.337,1.437,1.437,0,0,1,.989.337,1.1,1.1,0,0,1,.381.864A1.1,1.1,0,0,1,39.7-9.1a1.437,1.437,0,0,1-.989.337A1.437,1.437,0,0,1,37.72-9.1,1.1,1.1,0,0,1,37.339-9.968Zm7.3,7.031,1.252-4.988h2.6L45.908,0h-2.52L40.8-7.925h2.607ZM51.833,0H49.358V-7.925h2.476ZM49.211-9.968a1.1,1.1,0,0,1,.381-.864,1.437,1.437,0,0,1,.989-.337,1.437,1.437,0,0,1,.989.337,1.1,1.1,0,0,1,.381.864,1.1,1.1,0,0,1-.381.864,1.437,1.437,0,0,1-.989.337,1.437,1.437,0,0,1-.989-.337A1.1,1.1,0,0,1,49.211-9.968Zm3.831,5.947a4.841,4.841,0,0,1,.813-2.966,2.676,2.676,0,0,1,2.271-1.084,2.276,2.276,0,0,1,1.787.835V-11.25h2.476V0H58.169l-.125-.85a2.337,2.337,0,0,1-1.934,1A2.671,2.671,0,0,1,53.87-.937,4.994,4.994,0,0,1,53.042-4.021Zm2.468.154q0,2.109,1.23,2.109a1.215,1.215,0,0,0,1.172-.688V-5.464a1.182,1.182,0,0,0-1.157-.7q-1.143,0-1.238,1.846ZM66.255,0a2.787,2.787,0,0,1-.234-.71,2.3,2.3,0,0,1-1.9.857,2.812,2.812,0,0,1-1.9-.677,2.156,2.156,0,0,1-.784-1.7,2.216,2.216,0,0,1,.952-1.948,4.851,4.851,0,0,1,2.769-.659h.762v-.42q0-1.1-.945-1.1a.772.772,0,0,0-.879.868H61.619A2.213,2.213,0,0,1,62.6-7.354a4.109,4.109,0,0,1,2.494-.717,3.6,3.6,0,0,1,2.4.74,2.572,2.572,0,0,1,.9,2.029v3.508a3.593,3.593,0,0,0,.337,1.67V0ZM64.709-1.611a1.377,1.377,0,0,0,.765-.2,1.239,1.239,0,0,0,.436-.447V-3.523h-.718q-1.289,0-1.289,1.157a.707.707,0,0,0,.227.546A.822.822,0,0,0,64.709-1.611Zm4.731-2.41a4.841,4.841,0,0,1,.813-2.966,2.676,2.676,0,0,1,2.271-1.084,2.276,2.276,0,0,1,1.787.835V-11.25h2.476V0H74.568l-.125-.85a2.337,2.337,0,0,1-1.934,1A2.671,2.671,0,0,1,70.269-.937,4.994,4.994,0,0,1,69.441-4.021Zm2.468.154q0,2.109,1.23,2.109a1.215,1.215,0,0,0,1.172-.688V-5.464a1.182,1.182,0,0,0-1.157-.7q-1.143,0-1.238,1.846Z" transform="translate(759.208 408)" fill="#12263f"/>
    <path id="Trazado_162156" data-name="Trazado 162156" d="M7.419-4.526H3.376v2.549H8.152V0H.806V-10.664H8.167v1.985H3.376v2.249H7.419Zm4-3.4.081.93a2.725,2.725,0,0,1,2.263-1.077,2.006,2.006,0,0,1,2.029,1.194A2.637,2.637,0,0,1,18.12-8.071q2.41,0,2.476,2.915V0H18.12V-5a1.511,1.511,0,0,0-.205-.886.873.873,0,0,0-.747-.278,1.169,1.169,0,0,0-1.091.652l.007.1V0H13.608V-4.988a1.588,1.588,0,0,0-.2-.9.87.87,0,0,0-.754-.278,1.184,1.184,0,0,0-1.084.652V0H9.1V-7.925ZM29.363-3.9a4.779,4.779,0,0,1-.831,2.948,2.665,2.665,0,0,1-2.245,1.1,2.285,2.285,0,0,1-1.794-.8v3.7H22.024V-7.925h2.307l.073.732a2.285,2.285,0,0,1,1.868-.879,2.687,2.687,0,0,1,2.278,1.08,4.838,4.838,0,0,1,.813,2.97Zm-2.468-.154q0-2.109-1.23-2.109a1.162,1.162,0,0,0-1.172.63v3.12a1.2,1.2,0,0,0,1.187.659q1.179,0,1.216-2.036Zm8.35-1.633-.813-.059a1.46,1.46,0,0,0-1.494.732V0H30.469V-7.925h2.314l.081,1.018A1.911,1.911,0,0,1,34.6-8.071a2.407,2.407,0,0,1,.688.088ZM39.829.146A4.074,4.074,0,0,1,36.877-.941,3.756,3.756,0,0,1,35.75-3.772v-.205a4.867,4.867,0,0,1,.45-2.146,3.3,3.3,0,0,1,1.315-1.439,3.969,3.969,0,0,1,2.051-.509A3.43,3.43,0,0,1,42.2-7.035a4.073,4.073,0,0,1,.967,2.889v.959H38.262a1.779,1.779,0,0,0,.579,1.047A1.722,1.722,0,0,0,40-1.758a2.218,2.218,0,0,0,1.831-.82l1.128,1.333A3.153,3.153,0,0,1,41.649-.231,4.418,4.418,0,0,1,39.829.146Zm-.278-6.313q-1.084,0-1.289,1.436h2.49v-.19a1.223,1.223,0,0,0-.3-.919A1.2,1.2,0,0,0,39.551-6.167Zm6.877-1.758.081.93a2.687,2.687,0,0,1,2.263-1.077,2.261,2.261,0,0,1,1.849.74A3.522,3.522,0,0,1,51.255-5.1V0H48.779V-5a1.337,1.337,0,0,0-.242-.883,1.118,1.118,0,0,0-.879-.282,1.177,1.177,0,0,0-1.077.571V0H44.114V-7.925Zm5.881,3.9a4.841,4.841,0,0,1,.813-2.966,2.676,2.676,0,0,1,2.271-1.084,2.276,2.276,0,0,1,1.787.835V-11.25h2.476V0H57.437l-.125-.85a2.337,2.337,0,0,1-1.934,1A2.671,2.671,0,0,1,53.137-.937,4.994,4.994,0,0,1,52.31-4.021Zm2.468.154q0,2.109,1.23,2.109a1.215,1.215,0,0,0,1.172-.688V-5.464a1.182,1.182,0,0,0-1.157-.7q-1.143,0-1.238,1.846ZM63.662,0H61.187V-7.925h2.476ZM61.04-9.968a1.1,1.1,0,0,1,.381-.864,1.437,1.437,0,0,1,.989-.337,1.437,1.437,0,0,1,.989.337,1.1,1.1,0,0,1,.381.864A1.1,1.1,0,0,1,63.4-9.1a1.437,1.437,0,0,1-.989.337,1.437,1.437,0,0,1-.989-.337A1.1,1.1,0,0,1,61.04-9.968Zm6.475,2.043.081.93a2.725,2.725,0,0,1,2.263-1.077,2.006,2.006,0,0,1,2.029,1.194,2.637,2.637,0,0,1,2.329-1.194q2.41,0,2.476,2.915V0H74.216V-5a1.511,1.511,0,0,0-.205-.886.873.873,0,0,0-.747-.278,1.169,1.169,0,0,0-1.091.652l.007.1V0H69.7V-4.988a1.588,1.588,0,0,0-.2-.9.87.87,0,0,0-.754-.278,1.184,1.184,0,0,0-1.084.652V0H65.2V-7.925ZM80.706,0H78.23V-7.925h2.476ZM78.083-9.968a1.1,1.1,0,0,1,.381-.864,1.437,1.437,0,0,1,.989-.337,1.437,1.437,0,0,1,.989.337,1.1,1.1,0,0,1,.381.864,1.1,1.1,0,0,1-.381.864,1.437,1.437,0,0,1-.989.337,1.437,1.437,0,0,1-.989-.337A1.1,1.1,0,0,1,78.083-9.968ZM86.06.146A4.074,4.074,0,0,1,83.108-.941,3.756,3.756,0,0,1,81.98-3.772v-.205a4.867,4.867,0,0,1,.45-2.146,3.3,3.3,0,0,1,1.315-1.439A3.969,3.969,0,0,1,85.8-8.071a3.43,3.43,0,0,1,2.637,1.036A4.073,4.073,0,0,1,89.4-4.146v.959H84.492a1.779,1.779,0,0,0,.579,1.047,1.722,1.722,0,0,0,1.157.381,2.218,2.218,0,0,0,1.831-.82l1.128,1.333A3.153,3.153,0,0,1,87.88-.231,4.418,4.418,0,0,1,86.06.146Zm-.278-6.313q-1.084,0-1.289,1.436h2.49v-.19a1.223,1.223,0,0,0-.3-.919A1.2,1.2,0,0,0,85.781-6.167Zm6.877-1.758.081.93A2.687,2.687,0,0,1,95-8.071a2.261,2.261,0,0,1,1.849.74A3.522,3.522,0,0,1,97.485-5.1V0H95.01V-5a1.337,1.337,0,0,0-.242-.883,1.118,1.118,0,0,0-.879-.282,1.177,1.177,0,0,0-1.077.571V0H90.344V-7.925Zm9.067-1.97v1.97h1.3v1.714h-1.3v3.625a.926.926,0,0,0,.161.623.864.864,0,0,0,.637.176,3.621,3.621,0,0,0,.615-.044V-.066a4.555,4.555,0,0,1-1.392.212,2.586,2.586,0,0,1-1.882-.6,2.462,2.462,0,0,1-.608-1.824V-6.211H98.247V-7.925h1.011V-9.9Zm1.743,5.859a4.677,4.677,0,0,1,.461-2.113,3.3,3.3,0,0,1,1.326-1.425,3.993,3.993,0,0,1,2.029-.5,3.644,3.644,0,0,1,2.805,1.1,4.23,4.23,0,0,1,1.025,3v.088a4.1,4.1,0,0,1-1.029,2.941A3.654,3.654,0,0,1,107.3.146a3.7,3.7,0,0,1-2.717-1.014,3.968,3.968,0,0,1-1.106-2.75Zm2.468.154a2.949,2.949,0,0,0,.344,1.611,1.147,1.147,0,0,0,1.018.513q1.318,0,1.348-2.029v-.249q0-2.131-1.362-2.131-1.238,0-1.34,1.838Z" transform="translate(979.176 408)" fill="#12263f"/>
  </g>
</svg>
