<svg xmlns="http://www.w3.org/2000/svg" xmlns:xlink="http://www.w3.org/1999/xlink" width="820" height="378" viewBox="0 0 820 378">
  <defs>
    <filter id="Trazado_156548" x="137.31" y="132.471" width="110.862" height="71.676" filterUnits="userSpaceOnUse">
      <feOffset dy="3" input="SourceAlpha"/>
      <feGaussianBlur stdDeviation="3" result="blur"/>
      <feFlood flood-opacity="0.161"/>
      <feComposite operator="in" in2="blur"/>
      <feComposite in="SourceGraphic"/>
    </filter>
    <filter id="Trazado_156548-2" x="243.756" y="132.998" width="153.938" height="74.629" filterUnits="userSpaceOnUse">
      <feOffset dy="3" input="SourceAlpha"/>
      <feGaussianBlur stdDeviation="3" result="blur-2"/>
      <feFlood flood-opacity="0.161"/>
      <feComposite operator="in" in2="blur-2"/>
      <feComposite in="SourceGraphic"/>
    </filter>
    <filter id="Trazado_156548-3" x="392.606" y="132.471" width="146.95" height="71.676" filterUnits="userSpaceOnUse">
      <feOffset dy="3" input="SourceAlpha"/>
      <feGaussianBlur stdDeviation="3" result="blur-3"/>
      <feFlood flood-opacity="0.161"/>
      <feComposite operator="in" in2="blur-3"/>
      <feComposite in="SourceGraphic"/>
    </filter>
    <filter id="Trazado_156548-4" x="536.143" y="132.471" width="147.521" height="71.676" filterUnits="userSpaceOnUse">
      <feOffset dy="3" input="SourceAlpha"/>
      <feGaussianBlur stdDeviation="3" result="blur-4"/>
      <feFlood flood-opacity="0.161"/>
      <feComposite operator="in" in2="blur-4"/>
      <feComposite in="SourceGraphic"/>
    </filter>
  </defs>
  <g id="Grupo_112873" data-name="Grupo 112873" transform="translate(-390 -5162.93)">
    <g id="Grupo_112237" data-name="Grupo 112237" transform="translate(-105 166.93)">
      <rect id="Rectángulo_36918" data-name="Rectángulo 36918" width="820" height="378" rx="10" transform="translate(495 4996)" fill="#b0c0d2" opacity="0.15"/>
    </g>
    <g id="Grupo_112238" data-name="Grupo 112238" transform="translate(2 165.9)">
      <g id="Grupo_107413" data-name="Grupo 107413" transform="translate(557.321 5058.031)">
        <path id="Trazado_156547" data-name="Trazado 156547" d="M969.373,766.574a2.846,2.846,0,0,1-.785-.109c-.768-.219-1.267-.736-1.267-1.31V713.381H657.041c-6.567,0-11.91-3.693-11.91-8.232V618.063c0-4.539,5.343-8.232,11.91-8.232h310.28V558.056c0-.574.5-1.091,1.267-1.311a2.749,2.749,0,0,1,2.236.308L1120.633,660.6a1.137,1.137,0,0,1,0,2.006L970.824,766.158A2.586,2.586,0,0,1,969.373,766.574ZM657.041,612.668c-4.3,0-7.805,2.421-7.805,5.4v87.085c0,2.975,3.5,5.4,7.805,5.4H969.373c1.134,0,2.052.635,2.052,1.419v49.768L1116.28,661.606,971.425,561.48V611.25c0,.784-.918,1.419-2.052,1.419Z" transform="translate(-645.131 -556.637)" fill="#f85316"/>
      </g>
      <g id="Grupo_112207" data-name="Grupo 112207" transform="translate(0 27)">
        <g id="Grupo_112206" data-name="Grupo 112206" transform="translate(17.309 33.532)">
          <g transform="matrix(1, 0, 0, 1, 370.69, 4936.5)" filter="url(#Trazado_156548)">
            <path id="Trazado_156548-5" data-name="Trazado 156548" d="M687.543,699.814H618.581c-6.589,0-11.95-3.2-11.95-7.143V653.282c0-3.939,5.361-7.144,11.95-7.144h68.962c6.589,0,11.95,3.2,11.95,7.144V692.67C699.493,696.609,694.133,699.814,687.543,699.814Zm-68.962-51.382c-4.474,0-8.113,2.176-8.113,4.85V692.67c0,2.674,3.639,4.85,8.113,4.85h68.962c4.473,0,8.113-2.176,8.113-4.85V653.282c0-2.674-3.639-4.85-8.113-4.85Z" transform="translate(-460.32 -507.67)" fill="#fff"/>
          </g>
          <rect id="Rectángulo_37001" data-name="Rectángulo 37001" width="87.626" height="48.44" rx="13.071" transform="translate(519.619 5077.586)" fill="#3d46c2"/>
        </g>
        <path id="Trazado_162167" data-name="Trazado 162167" d="M3.946,0H1.31V-12.8H3.946ZM5.827-4.825a5.731,5.731,0,0,1,1-3.542A3.237,3.237,0,0,1,9.554-9.686a2.913,2.913,0,0,1,2.294,1.037V-13.5H14.4V0H12.1l-.123-1.011A2.989,2.989,0,0,1,9.536.176,3.228,3.228,0,0,1,6.842-1.147,5.916,5.916,0,0,1,5.827-4.825Zm2.54.189a3.754,3.754,0,0,0,.466,2.051,1.517,1.517,0,0,0,1.354.713,1.7,1.7,0,0,0,1.661-.995V-6.625A1.675,1.675,0,0,0,10.2-7.62Q8.367-7.62,8.367-4.636ZM20.742.176a4.668,4.668,0,0,1-3.406-1.283,4.561,4.561,0,0,1-1.314-3.419v-.246a5.745,5.745,0,0,1,.554-2.562,4.064,4.064,0,0,1,1.569-1.74,4.4,4.4,0,0,1,2.316-.611,3.947,3.947,0,0,1,3.072,1.23,5,5,0,0,1,1.121,3.489v1.037H18.6a2.36,2.36,0,0,0,.743,1.494,2.245,2.245,0,0,0,1.569.563A2.742,2.742,0,0,0,23.2-2.936l1.248,1.4A3.813,3.813,0,0,1,22.9-.277,5.075,5.075,0,0,1,20.742.176Zm-.29-7.813a1.587,1.587,0,0,0-1.226.512,2.651,2.651,0,0,0-.6,1.466h3.533v-.2A1.891,1.891,0,0,0,21.7-7.174,1.638,1.638,0,0,0,20.452-7.638ZM31.605,0a2.821,2.821,0,0,1-.255-.853,3.073,3.073,0,0,1-2.4,1.028,3.376,3.376,0,0,1-2.316-.809,2.6,2.6,0,0,1-.918-2.039,2.687,2.687,0,0,1,1.121-2.32,5.529,5.529,0,0,1,3.239-.817h1.169v-.545a1.567,1.567,0,0,0-.338-1.055,1.331,1.331,0,0,0-1.068-.4,1.513,1.513,0,0,0-1.006.308,1.045,1.045,0,0,0-.365.844h-2.54a2.551,2.551,0,0,1,.51-1.529,3.37,3.37,0,0,1,1.441-1.1,5.253,5.253,0,0,1,2.092-.4,4.15,4.15,0,0,1,2.791.883,3.09,3.09,0,0,1,1.033,2.483V-2.2a4.546,4.546,0,0,0,.378,2.048V0ZM29.5-1.767a2.188,2.188,0,0,0,1.037-.25,1.645,1.645,0,0,0,.7-.672V-4.324H30.3q-1.907,0-2.03,1.318l-.009.149a1.017,1.017,0,0,0,.334.782A1.3,1.3,0,0,0,29.5-1.767Z" transform="translate(563 5142)" fill="#fff"/>
      </g>
      <g id="Grupo_112208" data-name="Grupo 112208" transform="translate(107 27)">
        <g id="Grupo_112206-2" data-name="Grupo 112206" transform="translate(16.756 34.06)">
          <g transform="matrix(1, 0, 0, 1, 264.24, 4935.97)" filter="url(#Trazado_156548-2)">
            <path id="Trazado_156548-6" data-name="Trazado 156548" d="M725.075,702.767H624.124c-9.645,0-17.493-3.381-17.493-7.536V653.675c0-4.156,7.848-7.537,17.493-7.537H725.075c9.646,0,17.493,3.381,17.493,7.537V695.23C742.568,699.386,734.721,702.767,725.075,702.767ZM624.124,648.558c-6.549,0-11.876,2.3-11.876,5.117V695.23c0,2.821,5.327,5.116,11.876,5.116H725.075c6.549,0,11.876-2.3,11.876-5.116V653.675c0-2.821-5.327-5.117-11.876-5.117Z" transform="translate(-353.88 -507.14)" fill="#fff"/>
          </g>
          <rect id="Rectángulo_37001-2" data-name="Rectángulo 37001" width="130.701" height="51.393" rx="13.071" transform="translate(519.619 5077.586)" fill="#3d46c2"/>
        </g>
        <path id="Trazado_162168" data-name="Trazado 162168" d="M11.188-4.263A4.528,4.528,0,0,1,9.664-1.011,5.355,5.355,0,0,1,6.038.176,4.816,4.816,0,0,1,2.167-1.481,6.793,6.793,0,0,1,.756-6.029v-.782a7.671,7.671,0,0,1,.65-3.252,4.874,4.874,0,0,1,1.859-2.158,5.207,5.207,0,0,1,2.808-.751,5.217,5.217,0,0,1,3.568,1.187,4.866,4.866,0,0,1,1.564,3.331H8.569a2.673,2.673,0,0,0-.69-1.8,2.555,2.555,0,0,0-1.806-.558A2.24,2.24,0,0,0,4.1-9.866a5.3,5.3,0,0,0-.672,2.931v.967a5.667,5.667,0,0,0,.628,3.032,2.2,2.2,0,0,0,1.982.958,2.6,2.6,0,0,0,1.824-.558,2.521,2.521,0,0,0,.69-1.727Zm1.169-.58A5.64,5.64,0,0,1,12.9-7.365a3.989,3.989,0,0,1,1.569-1.714,4.577,4.577,0,0,1,2.377-.606,4.33,4.33,0,0,1,3.142,1.178,4.727,4.727,0,0,1,1.358,3.2l.018.65a4.97,4.97,0,0,1-1.222,3.511A4.247,4.247,0,0,1,16.866.176a4.268,4.268,0,0,1-3.283-1.318,5.058,5.058,0,0,1-1.226-3.586Zm2.54.18a3.555,3.555,0,0,0,.51,2.073,1.682,1.682,0,0,0,1.459.717,1.686,1.686,0,0,0,1.441-.709,3.89,3.89,0,0,0,.519-2.267,3.519,3.519,0,0,0-.519-2.06,1.686,1.686,0,0,0-1.459-.731,1.658,1.658,0,0,0-1.441.726A3.955,3.955,0,0,0,14.9-4.662ZM25.269-9.51l.079,1.1a3.32,3.32,0,0,1,2.733-1.274,2.759,2.759,0,0,1,2.25.888,4.142,4.142,0,0,1,.756,2.654V0h-2.54V-6.082A1.648,1.648,0,0,0,28.2-7.255a1.574,1.574,0,0,0-1.169-.365,1.747,1.747,0,0,0-1.608.914V0h-2.54V-9.51Zm11.7,7.638a1.666,1.666,0,0,0,1.143-.387,1.355,1.355,0,0,0,.457-1.028h2.382a3.258,3.258,0,0,1-.527,1.771A3.48,3.48,0,0,1,39-.268a4.442,4.442,0,0,1-1.991.444,4.129,4.129,0,0,1-3.217-1.3A5.13,5.13,0,0,1,32.616-4.7v-.167a5.071,5.071,0,0,1,1.169-3.507,4.08,4.08,0,0,1,3.208-1.31A4,4,0,0,1,39.854-8.67a3.594,3.594,0,0,1,1.094,2.7H38.566a1.745,1.745,0,0,0-.457-1.206,1.524,1.524,0,0,0-1.16-.464,1.53,1.53,0,0,0-1.34.647,3.749,3.749,0,0,0-.453,2.1v.264A3.8,3.8,0,0,0,35.6-2.515,1.549,1.549,0,0,0,36.967-1.872ZM46.775.176A4.668,4.668,0,0,1,43.37-1.107a4.561,4.561,0,0,1-1.314-3.419v-.246a5.745,5.745,0,0,1,.554-2.562,4.064,4.064,0,0,1,1.569-1.74,4.4,4.4,0,0,1,2.316-.611,3.947,3.947,0,0,1,3.072,1.23,5,5,0,0,1,1.121,3.489v1.037H44.631a2.36,2.36,0,0,0,.743,1.494,2.245,2.245,0,0,0,1.569.563,2.742,2.742,0,0,0,2.294-1.063l1.248,1.4A3.813,3.813,0,0,1,48.938-.277,5.075,5.075,0,0,1,46.775.176Zm-.29-7.813a1.587,1.587,0,0,0-1.226.512,2.651,2.651,0,0,0-.6,1.466H48.19v-.2a1.891,1.891,0,0,0-.457-1.311A1.638,1.638,0,0,0,46.485-7.638Zm14.2,2.971a5.7,5.7,0,0,1-1,3.52A3.2,3.2,0,0,1,57,.176a2.963,2.963,0,0,1-2.329-1V3.656h-2.54V-9.51h2.355l.088.932a2.985,2.985,0,0,1,2.408-1.107,3.22,3.22,0,0,1,2.733,1.3A5.858,5.858,0,0,1,60.688-4.8Zm-2.54-.185a3.743,3.743,0,0,0-.47-2.048,1.532,1.532,0,0,0-1.367-.721,1.663,1.663,0,0,0-1.644.914v3.894a1.692,1.692,0,0,0,1.661.94Q58.148-1.872,58.148-4.852Zm7.154-7V-9.51h1.626v1.863H65.3V-2.9a1.133,1.133,0,0,0,.2.756,1.015,1.015,0,0,0,.773.229,4.051,4.051,0,0,0,.747-.062V-.053a5.229,5.229,0,0,1-1.538.229,2.425,2.425,0,0,1-2.725-2.7V-7.646H61.374V-9.51h1.389v-2.338Zm2.382,7a5.64,5.64,0,0,1,.545-2.522A3.989,3.989,0,0,1,69.8-9.079a4.577,4.577,0,0,1,2.377-.606,4.33,4.33,0,0,1,3.142,1.178,4.727,4.727,0,0,1,1.358,3.2l.018.65a4.97,4.97,0,0,1-1.222,3.511A4.247,4.247,0,0,1,72.193.176a4.268,4.268,0,0,1-3.283-1.318,5.058,5.058,0,0,1-1.226-3.586Zm2.54.18a3.555,3.555,0,0,0,.51,2.073,1.682,1.682,0,0,0,1.459.717,1.686,1.686,0,0,0,1.441-.709,3.89,3.89,0,0,0,.519-2.267,3.519,3.519,0,0,0-.519-2.06,1.686,1.686,0,0,0-1.459-.731,1.658,1.658,0,0,0-1.441.726A3.955,3.955,0,0,0,70.225-4.662Z" transform="translate(563 5142)" fill="#fff"/>
      </g>
      <g id="Grupo_112209" data-name="Grupo 112209" transform="translate(256 27)">
        <g id="Grupo_112206-3" data-name="Grupo 112206" transform="translate(16.606 33.532)">
          <g transform="matrix(1, 0, 0, 1, 115.39, 4936.5)" filter="url(#Trazado_156548-3)">
            <path id="Trazado_156548-7" data-name="Trazado 156548" d="M718.987,699.814H623.225c-9.149,0-16.594-3.2-16.594-7.143V653.282c0-3.939,7.445-7.144,16.594-7.144h95.762c9.15,0,16.594,3.2,16.594,7.144V692.67C735.581,696.609,728.137,699.814,718.987,699.814Zm-95.762-51.382c-6.212,0-11.266,2.176-11.266,4.85V692.67c0,2.674,5.054,4.85,11.266,4.85h95.762c6.212,0,11.266-2.176,11.266-4.85V653.282c0-2.674-5.054-4.85-11.266-4.85Z" transform="translate(-205.02 -507.67)" fill="#fff"/>
          </g>
          <rect id="Rectángulo_37001-3" data-name="Rectángulo 37001" width="123.714" height="48.44" rx="13.071" transform="translate(519.619 5077.586)" fill="#3d46c2"/>
        </g>
        <path id="Trazado_162169" data-name="Trazado 162169" d="M7.778-3.357A1.353,1.353,0,0,0,7.251-4.5a6.917,6.917,0,0,0-1.9-.844,13.458,13.458,0,0,1-2.171-.875A3.547,3.547,0,0,1,1-9.4a3.09,3.09,0,0,1,.584-1.85,3.812,3.812,0,0,1,1.679-1.27,6.318,6.318,0,0,1,2.457-.457,5.751,5.751,0,0,1,2.443.5,3.891,3.891,0,0,1,1.666,1.4,3.668,3.668,0,0,1,.593,2.057H7.787a1.726,1.726,0,0,0-.554-1.367,2.276,2.276,0,0,0-1.556-.488,2.432,2.432,0,0,0-1.5.409,1.289,1.289,0,0,0-.536,1.077,1.235,1.235,0,0,0,.628,1.046,7.1,7.1,0,0,0,1.85.791A7.994,7.994,0,0,1,9.4-5.871a3.343,3.343,0,0,1,1.028,2.5A3.08,3.08,0,0,1,9.167-.769,5.5,5.5,0,0,1,5.783.176,6.534,6.534,0,0,1,3.094-.365a4.256,4.256,0,0,1-1.85-1.481,3.793,3.793,0,0,1-.637-2.18H3.252q0,2.118,2.531,2.118A2.462,2.462,0,0,0,7.251-2.29,1.244,1.244,0,0,0,7.778-3.357Zm3.867-1.485a5.64,5.64,0,0,1,.545-2.522,3.989,3.989,0,0,1,1.569-1.714,4.577,4.577,0,0,1,2.377-.606,4.33,4.33,0,0,1,3.142,1.178,4.727,4.727,0,0,1,1.358,3.2l.018.65a4.97,4.97,0,0,1-1.222,3.511A4.247,4.247,0,0,1,16.154.176a4.268,4.268,0,0,1-3.283-1.318,5.058,5.058,0,0,1-1.226-3.586Zm2.54.18a3.555,3.555,0,0,0,.51,2.073,1.682,1.682,0,0,0,1.459.717A1.686,1.686,0,0,0,17.6-2.581a3.89,3.89,0,0,0,.519-2.267,3.519,3.519,0,0,0-.519-2.06,1.686,1.686,0,0,0-1.459-.731,1.658,1.658,0,0,0-1.441.726A3.955,3.955,0,0,0,14.186-4.662ZM24.9,0H22.351V-13.5H24.9Zm7.787-.967a3.185,3.185,0,0,1-2.6,1.143A3,3,0,0,1,27.751-.7a3.752,3.752,0,0,1-.822-2.575V-9.51h2.54v6.151q0,1.487,1.354,1.487a1.834,1.834,0,0,0,1.775-.9V-9.51h2.549V0H32.757Zm8.332-.905a1.666,1.666,0,0,0,1.143-.387,1.355,1.355,0,0,0,.457-1.028H45a3.258,3.258,0,0,1-.527,1.771A3.48,3.48,0,0,1,43.053-.268a4.442,4.442,0,0,1-1.991.444,4.129,4.129,0,0,1-3.217-1.3A5.13,5.13,0,0,1,36.668-4.7v-.167a5.071,5.071,0,0,1,1.169-3.507,4.08,4.08,0,0,1,3.208-1.31A4,4,0,0,1,43.906-8.67,3.594,3.594,0,0,1,45-5.968H42.618a1.745,1.745,0,0,0-.457-1.206A1.524,1.524,0,0,0,41-7.638a1.53,1.53,0,0,0-1.34.647,3.749,3.749,0,0,0-.453,2.1v.264a3.8,3.8,0,0,0,.448,2.113A1.549,1.549,0,0,0,41.019-1.872ZM49.131,0H46.582V-9.51h2.549Zm-2.7-11.971a1.251,1.251,0,0,1,.382-.94,1.436,1.436,0,0,1,1.042-.369,1.44,1.44,0,0,1,1.037.369,1.244,1.244,0,0,1,.387.94,1.247,1.247,0,0,1-.391.949,1.443,1.443,0,0,1-1.033.369,1.443,1.443,0,0,1-1.033-.369A1.247,1.247,0,0,1,46.433-11.971Zm4.395,7.128a5.64,5.64,0,0,1,.545-2.522,3.989,3.989,0,0,1,1.569-1.714,4.577,4.577,0,0,1,2.377-.606A4.33,4.33,0,0,1,58.46-8.508a4.727,4.727,0,0,1,1.358,3.2l.018.65a4.97,4.97,0,0,1-1.222,3.511A4.247,4.247,0,0,1,55.336.176a4.268,4.268,0,0,1-3.283-1.318,5.058,5.058,0,0,1-1.226-3.586Zm2.54.18a3.555,3.555,0,0,0,.51,2.073,1.682,1.682,0,0,0,1.459.717,1.686,1.686,0,0,0,1.441-.709A3.89,3.89,0,0,0,57.3-4.847a3.519,3.519,0,0,0-.519-2.06,1.686,1.686,0,0,0-1.459-.731,1.658,1.658,0,0,0-1.441.726A3.955,3.955,0,0,0,53.367-4.662ZM55.819-13.5h2.769l-2.435,2.725H54.088Zm7.919,3.99.079,1.1a3.32,3.32,0,0,1,2.733-1.274A2.759,2.759,0,0,1,68.8-8.8a4.142,4.142,0,0,1,.756,2.654V0h-2.54V-6.082a1.648,1.648,0,0,0-.352-1.173A1.574,1.574,0,0,0,65.5-7.62a1.747,1.747,0,0,0-1.608.914V0h-2.54V-9.51Z" transform="translate(563 5142)" fill="#fff"/>
      </g>
      <g id="Grupo_112210" data-name="Grupo 112210" transform="translate(399 27)">
        <g id="Grupo_112206-4" data-name="Grupo 112206" transform="translate(17.142 33.532)">
          <g transform="matrix(1, 0, 0, 1, -28.14, 4936.5)" filter="url(#Trazado_156548-4)">
            <path id="Trazado_156548-8" data-name="Trazado 156548" d="M719.485,699.814H623.3c-9.19,0-16.668-3.2-16.668-7.143V653.282c0-3.939,7.478-7.144,16.668-7.144h96.186c9.191,0,16.667,3.2,16.667,7.144V692.67C736.152,696.609,728.676,699.814,719.485,699.814ZM623.3,648.432c-6.24,0-11.316,2.176-11.316,4.85V692.67c0,2.674,5.076,4.85,11.316,4.85h96.186c6.24,0,11.315-2.176,11.315-4.85V653.282c0-2.674-5.076-4.85-11.315-4.85Z" transform="translate(-61.49 -507.67)" fill="#fff"/>
          </g>
          <rect id="Rectángulo_37001-4" data-name="Rectángulo 37001" width="124.285" height="48.44" rx="13.071" transform="translate(519.619 5077.586)" fill="#3d46c2"/>
        </g>
        <path id="Trazado_162170" data-name="Trazado 162170" d="M4.588-12.8,7.875-3.516l3.27-9.281h3.463V0H11.962V-3.5l.264-6.038L8.771,0H6.961L3.516-9.527,3.779-3.5V0H1.143V-12.8ZM21.12.176a4.668,4.668,0,0,1-3.406-1.283A4.561,4.561,0,0,1,16.4-4.526v-.246a5.745,5.745,0,0,1,.554-2.562,4.064,4.064,0,0,1,1.569-1.74,4.4,4.4,0,0,1,2.316-.611,3.947,3.947,0,0,1,3.072,1.23,5,5,0,0,1,1.121,3.489v1.037H18.976a2.36,2.36,0,0,0,.743,1.494,2.245,2.245,0,0,0,1.569.563,2.742,2.742,0,0,0,2.294-1.063l1.248,1.4A3.813,3.813,0,0,1,23.282-.277,5.075,5.075,0,0,1,21.12.176Zm-.29-7.813a1.587,1.587,0,0,0-1.226.512A2.651,2.651,0,0,0,19-5.66h3.533v-.2a1.891,1.891,0,0,0-.457-1.311A1.638,1.638,0,0,0,20.83-7.638Zm10.986.51A6.9,6.9,0,0,0,30.9-7.2a1.86,1.86,0,0,0-1.89.976V0h-2.54V-9.51h2.4l.07,1.134a2.354,2.354,0,0,1,2.118-1.31,2.662,2.662,0,0,1,.791.114Zm5.01,5.256a1.666,1.666,0,0,0,1.143-.387,1.355,1.355,0,0,0,.457-1.028h2.382a3.258,3.258,0,0,1-.527,1.771A3.48,3.48,0,0,1,38.861-.268,4.442,4.442,0,0,1,36.87.176a4.129,4.129,0,0,1-3.217-1.3A5.13,5.13,0,0,1,32.476-4.7v-.167a5.071,5.071,0,0,1,1.169-3.507,4.08,4.08,0,0,1,3.208-1.31A4,4,0,0,1,39.713-8.67a3.594,3.594,0,0,1,1.094,2.7H38.426a1.745,1.745,0,0,0-.457-1.206,1.524,1.524,0,0,0-1.16-.464,1.53,1.53,0,0,0-1.34.647,3.749,3.749,0,0,0-.453,2.1v.264a3.8,3.8,0,0,0,.448,2.113A1.549,1.549,0,0,0,36.826-1.872ZM47.769,0a2.821,2.821,0,0,1-.255-.853,3.073,3.073,0,0,1-2.4,1.028A3.376,3.376,0,0,1,42.8-.633a2.6,2.6,0,0,1-.918-2.039A2.687,2.687,0,0,1,43-4.992a5.529,5.529,0,0,1,3.239-.817h1.169v-.545a1.567,1.567,0,0,0-.338-1.055A1.331,1.331,0,0,0,46-7.8,1.513,1.513,0,0,0,45-7.5a1.045,1.045,0,0,0-.365.844h-2.54a2.551,2.551,0,0,1,.51-1.529,3.37,3.37,0,0,1,1.441-1.1,5.253,5.253,0,0,1,2.092-.4,4.15,4.15,0,0,1,2.791.883,3.09,3.09,0,0,1,1.033,2.483V-2.2a4.546,4.546,0,0,0,.378,2.048V0Zm-2.1-1.767a2.188,2.188,0,0,0,1.037-.25,1.645,1.645,0,0,0,.7-.672V-4.324h-.949q-1.907,0-2.03,1.318l-.009.149a1.017,1.017,0,0,0,.334.782A1.3,1.3,0,0,0,45.668-1.767Zm5.845-3.059a5.731,5.731,0,0,1,1-3.542,3.237,3.237,0,0,1,2.729-1.318,2.913,2.913,0,0,1,2.294,1.037V-13.5h2.549V0H57.788l-.123-1.011A2.989,2.989,0,0,1,55.222.176a3.228,3.228,0,0,1-2.694-1.323A5.916,5.916,0,0,1,51.513-4.825Zm2.54.189a3.754,3.754,0,0,0,.466,2.051,1.517,1.517,0,0,0,1.354.713,1.7,1.7,0,0,0,1.661-.995V-6.625A1.675,1.675,0,0,0,55.89-7.62Q54.053-7.62,54.053-4.636Zm7.6-.207A5.64,5.64,0,0,1,62.2-7.365a3.989,3.989,0,0,1,1.569-1.714,4.577,4.577,0,0,1,2.377-.606,4.33,4.33,0,0,1,3.142,1.178,4.727,4.727,0,0,1,1.358,3.2l.018.65a4.97,4.97,0,0,1-1.222,3.511A4.247,4.247,0,0,1,66.164.176a4.268,4.268,0,0,1-3.283-1.318,5.058,5.058,0,0,1-1.226-3.586Zm2.54.18a3.555,3.555,0,0,0,.51,2.073,1.682,1.682,0,0,0,1.459.717,1.686,1.686,0,0,0,1.441-.709,3.89,3.89,0,0,0,.519-2.267,3.519,3.519,0,0,0-.519-2.06,1.686,1.686,0,0,0-1.459-.731,1.658,1.658,0,0,0-1.441.726A3.955,3.955,0,0,0,64.2-4.662Z" transform="translate(563 5142)" fill="#fff"/>
      </g>
      <g id="Grupo_112212" data-name="Grupo 112212" transform="translate(0 27)">
        <g id="Grupo_112211" data-name="Grupo 112211" transform="translate(935.771 17474.895) rotate(180)">
          <rect id="BG" width="214.771" height="3.454" transform="translate(180 12405.546)" fill="#3d46c2"/>
          <path id="Trazado_1367" data-name="Trazado 1367" d="M0,0,9.784,9.784H0Z" transform="translate(280.397 12408.947) rotate(-45)" fill="#3d46c2"/>
        </g>
        <rect id="BG-2" data-name="BG" width="12.771" height="3.454" transform="translate(541 5078.719) rotate(-90)" fill="#3d46c2"/>
        <rect id="BG-3" data-name="BG" width="12.771" height="3.454" transform="translate(752.317 5078.719) rotate(-90)" fill="#3d46c2"/>
      </g>
      <g id="Grupo_112213" data-name="Grupo 112213" transform="translate(1574.423 10346.688) rotate(180)">
        <g id="Grupo_112211-2" data-name="Grupo 112211" transform="translate(935.771 17474.895) rotate(180)">
          <rect id="BG-4" data-name="BG" width="214.771" height="3.454" transform="translate(180 12405.546)" fill="#3d46c2"/>
          <path id="Trazado_1367-2" data-name="Trazado 1367" d="M0,0,9.784,9.784H0Z" transform="translate(280.397 12408.947) rotate(-45)" fill="#3d46c2"/>
        </g>
        <rect id="BG-5" data-name="BG" width="12.771" height="3.454" transform="translate(541 5078.719) rotate(-90)" fill="#3d46c2"/>
        <rect id="BG-6" data-name="BG" width="12.771" height="3.454" transform="translate(752.317 5078.719) rotate(-90)" fill="#3d46c2"/>
      </g>
      <g id="Grupo_112214" data-name="Grupo 112214" transform="translate(-373.885 3500.029)">
        <path id="Trazado_160224" data-name="Trazado 160224" d="M2.48,0H117.707a2.683,2.683,0,0,1,2.48,2.848V31.379a2.683,2.683,0,0,1-2.48,2.848H2.48A2.683,2.683,0,0,1,0,31.379V2.848A2.683,2.683,0,0,1,2.48,0Z" transform="translate(962.793 1531.91)" fill="#fff" stroke="#3d46c2" stroke-width="1.5"/>
        <path id="Trazado_162166" data-name="Trazado 162166" d="M25.511,8.933H21.574V13H19.523V3.047H26V4.708h-4.43v2.57h3.938ZM31.5,10.949H27.9L27.22,13H25.04l3.705-9.953h1.9L34.371,13H32.19ZM28.458,9.288h2.488L29.695,5.563Zm12,1.1a1.052,1.052,0,0,0-.41-.892,5.38,5.38,0,0,0-1.477-.656,10.467,10.467,0,0,1-1.688-.68,2.759,2.759,0,0,1-1.7-2.468,2.4,2.4,0,0,1,.455-1.439,2.965,2.965,0,0,1,1.306-.988,4.914,4.914,0,0,1,1.911-.355,4.473,4.473,0,0,1,1.9.386,3.026,3.026,0,0,1,1.3,1.09,2.853,2.853,0,0,1,.461,1.6H40.468a1.342,1.342,0,0,0-.431-1.063,1.77,1.77,0,0,0-1.21-.379,1.891,1.891,0,0,0-1.169.318,1,1,0,0,0-.417.837.96.96,0,0,0,.489.813,5.522,5.522,0,0,0,1.439.615,6.217,6.217,0,0,1,2.55,1.306,2.6,2.6,0,0,1,.8,1.941,2.4,2.4,0,0,1-.978,2.027,4.279,4.279,0,0,1-2.632.735,5.082,5.082,0,0,1-2.092-.42,3.31,3.31,0,0,1-1.439-1.152,2.95,2.95,0,0,1-.5-1.7h2.058q0,1.647,1.969,1.647a1.915,1.915,0,0,0,1.142-.3A.967.967,0,0,0,40.461,10.389Zm9.434-1.7H45.958v2.666h4.621V13H43.907V3.047h6.658V4.708H45.958V7.08H49.9Zm13.187,1A3.522,3.522,0,0,1,61.9,12.214a4.165,4.165,0,0,1-2.82.923,3.745,3.745,0,0,1-3.011-1.289,5.284,5.284,0,0,1-1.1-3.538V7.7a5.966,5.966,0,0,1,.506-2.529,3.791,3.791,0,0,1,1.446-1.678,4.518,4.518,0,0,1,4.959.338A3.785,3.785,0,0,1,63.1,6.424H61.044a2.079,2.079,0,0,0-.537-1.4,1.987,1.987,0,0,0-1.4-.434,1.742,1.742,0,0,0-1.535.735,4.118,4.118,0,0,0-.523,2.28v.752a4.408,4.408,0,0,0,.489,2.358,1.71,1.71,0,0,0,1.542.745,2.025,2.025,0,0,0,1.418-.434,1.961,1.961,0,0,0,.537-1.343Zm5.031-.328H66.479V13H64.428V3.047h3.7a4.181,4.181,0,0,1,2.721.786A2.713,2.713,0,0,1,71.8,6.055a3.062,3.062,0,0,1-.441,1.7,3.007,3.007,0,0,1-1.336,1.083L72.18,12.9V13h-2.2ZM66.479,7.7h1.654a1.694,1.694,0,0,0,1.2-.393,1.4,1.4,0,0,0,.424-1.083,1.5,1.5,0,0,0-.4-1.107,1.662,1.662,0,0,0-1.227-.4H66.479Zm12.872.991H75.414v2.666h4.621V13H73.363V3.047h6.658V4.708H75.414V7.08h3.938Zm7.506,2.263h-3.6L82.578,13H80.4L84.1,3.047H86L89.728,13H87.547ZM83.815,9.288H86.3L85.052,5.563ZM97.33,4.708H94.281V13H92.23V4.708H89.222V3.047H97.33ZM100.679,13H98.628V3.047h2.051Zm5.578-2.468,2.256-7.485H110.8L107.331,13h-2.14l-3.452-9.953h2.276Zm10.582.417h-3.6L112.56,13h-2.181l3.705-9.953h1.9L119.71,13H117.53ZM113.8,9.288h2.488l-1.251-3.726Z" transform="translate(953.271 1541)" fill="#12263f"/>
      </g>
      <g id="Grupo_112215" data-name="Grupo 112215" transform="translate(-96.232 3774.029)">
        <path id="Trazado_160224-2" data-name="Trazado 160224" d="M2.633,0h122.3a2.747,2.747,0,0,1,2.633,2.848V31.379a2.747,2.747,0,0,1-2.633,2.848H2.633A2.747,2.747,0,0,1,0,31.379V2.848A2.747,2.747,0,0,1,2.633,0Z" transform="translate(959.105 1531.91)" fill="#fff" stroke="#3d46c2" stroke-width="1.5"/>
        <path id="Trazado_162171" data-name="Trazado 162171" d="M21.823,8.933H17.886V13H15.835V3.047h6.48V4.708h-4.43v2.57h3.938Zm5.988,2.017h-3.6L23.532,13H21.352l3.705-9.953h1.9L30.683,13H28.5ZM24.77,9.288h2.488L26.007,5.563Zm12,1.1a1.052,1.052,0,0,0-.41-.892,5.38,5.38,0,0,0-1.477-.656A10.467,10.467,0,0,1,33.2,8.16a2.759,2.759,0,0,1-1.7-2.468,2.4,2.4,0,0,1,.455-1.439,2.965,2.965,0,0,1,1.306-.988,4.914,4.914,0,0,1,1.911-.355,4.473,4.473,0,0,1,1.9.386,3.026,3.026,0,0,1,1.3,1.09,2.853,2.853,0,0,1,.461,1.6H36.78a1.342,1.342,0,0,0-.431-1.063,1.77,1.77,0,0,0-1.21-.379,1.891,1.891,0,0,0-1.169.318,1,1,0,0,0-.417.837.96.96,0,0,0,.489.813,5.522,5.522,0,0,0,1.439.615,6.217,6.217,0,0,1,2.55,1.306,2.6,2.6,0,0,1,.8,1.941,2.4,2.4,0,0,1-.978,2.027,4.279,4.279,0,0,1-2.632.735,5.082,5.082,0,0,1-2.092-.42,3.31,3.31,0,0,1-1.439-1.152,2.95,2.95,0,0,1-.5-1.7h2.058q0,1.647,1.969,1.647a1.915,1.915,0,0,0,1.142-.3A.967.967,0,0,0,36.773,10.389Zm9.434-1.7H42.27v2.666h4.621V13H40.219V3.047h6.658V4.708H42.27V7.08h3.938Zm11.361,0H53.631v2.666h4.621V13H51.58V3.047h6.658V4.708H53.631V7.08h3.938Zm5.9-5.64h2.051V9.938a3.3,3.3,0,0,1-.42,1.678,2.853,2.853,0,0,1-1.186,1.125,3.705,3.705,0,0,1-1.729.4,3.522,3.522,0,0,1-2.461-.8,2.918,2.918,0,0,1-.882-2.273H60.9a1.6,1.6,0,0,0,.308,1.08,1.231,1.231,0,0,0,.971.349,1.175,1.175,0,0,0,.937-.4,1.7,1.7,0,0,0,.349-1.148Zm9.8,5.64H69.326v2.666h4.621V13H67.275V3.047h6.658V4.708H69.326V7.08h3.938Zm9.7,1a3.522,3.522,0,0,1-1.186,2.529,4.165,4.165,0,0,1-2.82.923,3.745,3.745,0,0,1-3.011-1.289,5.284,5.284,0,0,1-1.1-3.538V7.7a5.966,5.966,0,0,1,.506-2.529A3.791,3.791,0,0,1,76.8,3.495a4.518,4.518,0,0,1,4.959.338,3.785,3.785,0,0,1,1.217,2.591H80.927a2.079,2.079,0,0,0-.537-1.4,1.987,1.987,0,0,0-1.4-.434,1.742,1.742,0,0,0-1.535.735,4.118,4.118,0,0,0-.523,2.28v.752a4.408,4.408,0,0,0,.489,2.358,1.71,1.71,0,0,0,1.542.745,2.025,2.025,0,0,0,1.418-.434,1.961,1.961,0,0,0,.537-1.343Zm8.88-6.638V9.6a3.356,3.356,0,0,1-1.022,2.584,3.94,3.94,0,0,1-2.792.95,3.984,3.984,0,0,1-2.769-.923,3.3,3.3,0,0,1-1.046-2.536V3.047h2.051V9.616a1.9,1.9,0,0,0,.468,1.425,1.8,1.8,0,0,0,1.3.448q1.729,0,1.757-1.818V3.047Zm9.174,1.661H97.969V13H95.918V4.708H92.91V3.047h8.107ZM104.367,13h-2.051V3.047h2.051Zm5.578-2.468L112.2,3.047h2.283L111.019,13h-2.14l-3.452-9.953H107.7Zm10.582.417h-3.6L116.248,13h-2.181l3.705-9.953h1.9L123.4,13h-2.181Zm-3.042-1.661h2.488l-1.251-3.726Z" transform="translate(953.271 1541)" fill="#12263f"/>
      </g>
    </g>
  </g>
</svg>
